<svg width="888" height="570" viewBox="0 0 888 570" fill="none" xmlns="http://www.w3.org/2000/svg">
<g clip-path="url(#clip0)">
<path d="M544.06 553.295C534.544 566.038 514.793 567.379 514.793 567.379C514.793 567.379 510.468 548.06 519.984 535.317C529.499 522.575 549.25 521.233 549.25 521.233C549.25 521.233 553.575 540.552 544.06 553.295Z" fill="#E6E6E6"/>
<path d="M500.269 461.077V511.203H485.947L476.4 458.69L500.269 461.077Z" fill="#FFB9B9"/>
<path d="M386.889 461.077V511.203H372.568L363.02 458.69L386.889 461.077Z" fill="#FFB9B9"/>
<path d="M462.442 91.5655C462.442 91.5655 439.428 75.0241 436.551 82.9352C433.675 90.8463 453.812 105.23 453.812 105.23L462.442 91.5655Z" fill="#FFB9B9"/>
<path d="M380.814 112.782C380.814 141.38 393.127 142.268 413.185 142.268C433.244 142.268 453.452 141.38 453.452 112.782C453.452 84.1834 437.192 61 417.133 61C397.075 61 380.814 84.1834 380.814 112.782Z" fill="#2F2E41"/>
<path d="M430.079 112.422C430.079 112.422 427.202 133.997 440.866 135.436C454.531 136.874 396.277 141.189 396.277 141.189C396.277 141.189 411.38 127.525 403.469 116.737C395.558 105.949 430.079 112.422 430.079 112.422Z" fill="#FFB9B9"/>
<path d="M502.716 497.906L507.751 540.339C507.751 540.339 532.922 571.264 517.1 569.106C501.278 566.949 491.209 569.565 491.209 566.688C491.209 563.811 490.837 553.533 488.68 553.533C486.522 553.533 484.737 569.763 484.737 569.763C484.737 569.763 478.264 569.273 477.545 568.554C476.826 567.835 476.107 526.674 476.107 526.674C476.107 526.674 473.949 514.448 478.264 508.694C482.579 502.941 481.86 497.907 481.86 497.907L502.716 497.906Z" fill="#2F2E41"/>
<path d="M388.143 497.44L393.178 539.872C393.178 539.872 418.349 570.797 402.527 568.64C386.705 566.482 376.636 569.099 376.636 566.222C376.636 563.345 376.264 553.067 374.107 553.067C371.949 553.067 370.164 569.297 370.164 569.297C370.164 569.297 363.691 568.807 362.972 568.088C362.253 567.369 361.533 526.208 361.533 526.208C361.533 526.208 359.376 513.982 363.691 508.228C368.006 502.475 367.287 497.44 367.287 497.44H388.143Z" fill="#2F2E41"/>
<path d="M465.319 245.472C465.319 245.472 488.333 310.918 489.771 325.302C491.21 339.685 488.333 388.59 488.333 388.59C488.333 388.59 509.189 473.089 504.874 473.808C500.559 474.527 476.528 477.937 475.809 474.341C475.09 470.745 472.526 465.178 473.245 463.02C473.964 460.862 471.088 452.951 471.088 448.636C471.088 444.321 461.004 421.673 461.723 418.077C462.442 414.481 449.497 361.261 447.339 356.946C445.181 352.631 439.428 322.425 439.428 322.425C439.428 322.425 407.064 410.885 406.345 413.042C405.626 415.2 402.749 418.796 404.188 419.515C405.626 420.234 402.03 425.269 402.03 425.269C402.03 425.269 394.578 455.109 394.578 456.547C394.578 457.986 396.016 474.267 393.139 474.986C390.263 475.705 360.878 475.659 359.44 470.625C358.001 465.591 374.701 407.289 374.701 407.289C374.701 407.289 386.927 370.61 383.331 361.261C379.735 351.912 386.927 295.815 389.804 291.5C392.681 287.185 393.4 261.294 393.4 261.294L465.319 245.472Z" fill="#2F2E41"/>
<path d="M417.493 124.289C430.203 124.289 440.507 113.985 440.507 101.275C440.507 88.5642 430.203 78.2605 417.493 78.2605C404.782 78.2605 394.479 88.5642 394.479 101.275C394.479 113.985 404.782 124.289 417.493 124.289Z" fill="#FFB9B9"/>
<path d="M430.079 130.402C430.079 130.402 404.188 131.121 402.749 128.963C401.311 126.806 365.352 133.998 365.352 148.381C365.352 162.765 386.208 218.862 386.208 218.862C386.208 218.862 394.119 259.136 391.962 263.451C389.804 267.766 471.791 254.102 469.634 246.91C467.476 239.718 455.25 223.896 471.072 210.231C486.894 196.567 493.367 182.183 493.367 182.183L474.668 132.559C474.668 132.559 455.969 129.682 451.654 132.559C447.339 135.436 430.079 130.402 430.079 130.402Z" fill="#6C63FF"/>
<path d="M488.333 185.779L493.367 182.183C493.367 182.183 540.114 133.278 527.888 123.929C515.662 114.58 497.682 105.949 489.052 105.23C480.422 104.511 473.23 98.0383 473.23 98.0383C473.23 98.0383 463.88 81.497 456.689 92.2848C449.497 103.073 441.586 106.669 451.654 110.264C461.723 113.86 468.196 112.422 473.23 116.018C478.264 119.614 497.682 125.367 489.052 127.525C484.103 128.725 479.285 130.411 474.668 132.559L465.319 149.101L488.333 185.779Z" fill="#6C63FF"/>
<path d="M407.065 307.322C407.065 307.322 425.763 334.651 412.099 333.213C398.434 331.774 391.962 313.075 391.962 313.075L407.065 307.322Z" fill="#FFB9B9"/>
<path d="M370.386 144.785L365.352 148.381C365.352 148.381 348.81 238.999 365.352 262.732C381.893 286.465 383.331 285.027 383.331 285.027C383.331 285.027 386.208 282.869 387.647 297.253C389.085 311.637 386.927 317.391 391.242 317.391C395.558 317.391 414.976 313.075 413.537 309.479C412.099 305.883 402.749 285.027 402.03 279.993C401.311 274.958 397.715 263.451 396.277 256.979C394.838 250.506 402.749 246.91 399.154 233.246C395.558 219.581 390.523 195.129 390.523 190.094C390.523 185.06 370.386 144.785 370.386 144.785Z" fill="#6C63FF"/>
<path d="M395.198 80.7778C395.198 88.5232 405.824 94.802 418.931 94.802C432.039 94.802 444.103 98.9514 444.103 91.206C444.103 83.4607 432.039 66.7537 418.931 66.7537C405.824 66.7537 395.198 73.0325 395.198 80.7778Z" fill="#2F2E41"/>
<path d="M453.237 117.635C453.237 117.635 454.205 143.707 428.298 142.268C402.39 140.83 431.799 119.983 431.799 119.983L453.237 117.635Z" fill="#2F2E41"/>
<path d="M957 567H0V570H957V567Z" fill="#3F3D56"/>
</g>
<defs>
<clipPath id="clip0">
<rect width="887.873" height="569.68" fill="white"/>
</clipPath>
</defs>
</svg>
