<svg width="1098" height="808" viewBox="0 0 1098 808" fill="none" xmlns="http://www.w3.org/2000/svg">
<g opacity="0.1">
<path opacity="0.1" d="M657.55 521.66C657.55 521.66 661.11 446.74 702.24 404.95C719.586 387.526 730.815 364.947 734.24 340.6C735.782 329.028 736.261 317.339 735.67 305.68" stroke="#535461" stroke-width="2" stroke-miterlimit="10"/>
<path opacity="0.1" d="M761.55 279.19C758.66 287.52 735.2 306.45 735.2 306.45C735.2 306.45 728.5 277.06 731.39 268.73C731.963 266.611 732.966 264.633 734.337 262.918C735.707 261.204 737.415 259.789 739.356 258.763C741.296 257.737 743.427 257.122 745.616 256.954C747.804 256.787 750.004 257.072 752.078 257.791C754.152 258.51 756.055 259.649 757.67 261.135C759.285 262.621 760.577 264.424 761.466 266.431C762.354 268.439 762.82 270.607 762.835 272.802C762.849 274.997 762.412 277.171 761.55 279.19V279.19Z" fill="#6C63FF"/>
<path opacity="0.1" d="M770.43 333.95C763.43 339.37 733.49 342.51 733.49 342.51C733.49 342.51 743.84 314.19 750.79 308.77C752.425 307.316 754.341 306.213 756.419 305.529C758.497 304.845 760.693 304.595 762.872 304.793C765.051 304.991 767.166 305.634 769.087 306.683C771.007 307.731 772.692 309.162 774.038 310.887C775.383 312.612 776.361 314.595 776.91 316.712C777.459 318.83 777.567 321.038 777.229 323.2C776.891 325.361 776.113 327.431 774.944 329.28C773.774 331.129 772.238 332.718 770.43 333.95V333.95Z" fill="#6C63FF"/>
<path opacity="0.1" d="M741.98 412.47C733.24 413.64 705.78 401.21 705.78 401.21C705.78 401.21 729.01 381.99 737.78 380.82C739.926 380.389 742.137 380.404 744.277 380.862C746.417 381.32 748.44 382.212 750.221 383.483C752.003 384.755 753.505 386.378 754.634 388.253C755.763 390.127 756.495 392.214 756.786 394.383C757.076 396.552 756.919 398.758 756.323 400.863C755.727 402.969 754.706 404.93 753.322 406.626C751.938 408.321 750.221 409.714 748.277 410.72C746.333 411.725 744.203 412.321 742.02 412.47H741.98Z" fill="#6C63FF"/>
<path opacity="0.1" d="M707.09 467C698.67 469.63 669.5 462 669.5 462C669.5 462 689.14 439.13 697.56 436.5C701.511 435.536 705.681 436.113 709.223 438.113C712.764 440.114 715.41 443.387 716.624 447.269C717.838 451.151 717.528 455.35 715.757 459.011C713.986 462.672 710.887 465.522 707.09 466.98V467Z" fill="#6C63FF"/>
<path opacity="0.1" d="M701.26 333.17C705.26 341.05 730.98 356.72 730.98 356.72C730.98 356.72 733.75 326.72 729.79 318.82C727.735 315.309 724.421 312.713 720.52 311.559C716.619 310.405 712.425 310.78 708.791 312.608C705.157 314.435 702.356 317.579 700.957 321.399C699.558 325.218 699.666 329.427 701.26 333.17V333.17Z" fill="#6C63FF"/>
<path opacity="0.1" d="M661.26 397.47C667.4 403.8 696.66 411.05 696.66 411.05C696.66 411.05 690.33 381.58 684.19 375.25C681.179 372.512 677.239 371.024 673.17 371.089C669.101 371.154 665.209 372.767 662.288 375.599C659.366 378.432 657.633 382.271 657.442 386.336C657.251 390.401 658.616 394.386 661.26 397.48V397.47Z" fill="#6C63FF"/>
<path opacity="0.1" d="M630.96 465.29C635.96 472.57 663.56 484.66 663.56 484.66C663.56 484.66 662.3 454.54 657.32 447.26C654.801 444.105 651.182 442.019 647.189 441.421C643.197 440.822 639.126 441.755 635.792 444.032C632.458 446.309 630.109 449.763 629.214 453.7C628.32 457.636 628.947 461.766 630.97 465.26L630.96 465.29Z" fill="#6C63FF"/>
</g>
<path d="M372.51 184.9H365.51V283.9H372.51V184.9Z" fill="#535461"/>
<path d="M372.51 317.9H365.51V373.9H372.51V317.9Z" fill="#535461"/>
<path d="M638.41 87.8999H417.61C391.597 87.8999 370.51 108.987 370.51 135V724.8C370.51 750.812 391.597 771.9 417.61 771.9H638.41C664.423 771.9 685.51 750.812 685.51 724.8V135C685.51 108.987 664.423 87.8999 638.41 87.8999Z" fill="#535461"/>
<path d="M638.41 119.9H417.61C391.597 119.9 370.51 140.987 370.51 167V695.8C370.51 721.812 391.597 742.9 417.61 742.9H638.41C664.423 742.9 685.51 721.812 685.51 695.8V167C685.51 140.987 664.423 119.9 638.41 119.9Z" fill="#6C63FF"/>
<path d="M551.01 102.9H506.01C504.077 102.9 502.51 104.467 502.51 106.4C502.51 108.333 504.077 109.9 506.01 109.9H551.01C552.943 109.9 554.51 108.333 554.51 106.4C554.51 104.467 552.943 102.9 551.01 102.9Z" fill="#EAEAF3"/>
<path d="M572.51 111.9C575.271 111.9 577.51 109.661 577.51 106.9C577.51 104.138 575.271 101.9 572.51 101.9C569.749 101.9 567.51 104.138 567.51 106.9C567.51 109.661 569.749 111.9 572.51 111.9Z" fill="#EAEAF3"/>
<path d="M446.31 396.1V469.1C446.335 471.389 445.905 473.66 445.045 475.781C444.184 477.903 442.911 479.831 441.298 481.456C439.686 483.081 437.766 484.369 435.652 485.245C433.537 486.121 431.269 486.568 428.98 486.56C419.34 486.56 409.98 478.75 409.98 469.1V396.1C409.98 386.58 419.31 378.77 428.98 378.77C433.571 378.788 437.968 380.62 441.214 383.866C444.46 387.112 446.292 391.51 446.31 396.1V396.1ZM453.12 495.04C453.115 497.491 453.594 499.918 454.529 502.183C455.464 504.448 456.838 506.506 458.571 508.239C460.304 509.972 462.362 511.346 464.627 512.281C466.892 513.217 469.319 513.695 471.77 513.69H484.31L484.5 552.2C484.5 575.45 519.29 575.27 519.29 552.2V513.7H542.73V552.21C542.73 575.34 577.73 575.4 577.73 552.21V513.7H590.46C592.901 513.692 595.317 513.204 597.57 512.262C599.822 511.321 601.867 509.945 603.588 508.213C605.308 506.481 606.671 504.427 607.598 502.169C608.525 499.91 608.998 497.491 608.99 495.05V381.95H453.12V495.04ZM609.41 375.87H452.41C452.41 348.87 468.54 325.45 492.49 313.23L480.49 290.98C478.73 287.89 483.2 285.98 484.71 288.59L496.94 311.03C507.701 306.322 519.319 303.892 531.065 303.892C542.811 303.892 554.429 306.322 565.19 311.03L577.35 288.66C578.93 285.95 583.35 287.97 581.57 291.05L569.57 313.23C593.28 325.45 609.41 348.9 609.41 375.87ZM501.83 340.87C501.83 339.114 501.133 337.43 499.891 336.189C498.65 334.948 496.966 334.25 495.21 334.25C493.5 334.317 491.882 335.043 490.696 336.276C489.51 337.509 488.847 339.154 488.847 340.865C488.847 342.576 489.51 344.221 490.696 345.454C491.882 346.688 493.5 347.414 495.21 347.48C496.961 347.48 498.64 346.787 499.88 345.552C501.121 344.317 501.822 342.641 501.83 340.89V340.87ZM573.3 340.87C573.28 339.581 572.879 338.327 572.146 337.266C571.414 336.206 570.383 335.386 569.185 334.91C567.987 334.435 566.675 334.325 565.414 334.595C564.154 334.866 563.002 335.503 562.104 336.428C561.206 337.353 560.602 338.523 560.368 339.791C560.135 341.058 560.283 342.367 560.793 343.551C561.303 344.734 562.153 345.74 563.234 346.442C564.316 347.143 565.581 347.508 566.87 347.49C568.592 347.451 570.231 346.737 571.433 345.503C572.635 344.269 573.306 342.613 573.3 340.89V340.87ZM633.04 378.75C630.762 378.743 628.506 379.187 626.4 380.056C624.295 380.924 622.382 382.201 620.771 383.811C619.161 385.422 617.884 387.335 617.016 389.44C616.147 391.546 615.703 393.802 615.71 396.08V469.08C615.701 471.365 616.142 473.629 617.008 475.743C617.874 477.857 619.148 479.779 620.757 481.401C622.367 483.022 624.28 484.311 626.387 485.192C628.495 486.074 630.755 486.532 633.04 486.54C642.75 486.54 652.04 478.73 652.04 469.08V396.08C652.01 386.4 642.68 378.77 633.04 378.77V378.75Z" fill="white"/>
<path d="M519.01 569.46H454.01V572.46H519.01V569.46Z" fill="#535461"/>
<path d="M586.01 569.46H543.01V572.46H586.01V569.46Z" fill="#535461"/>
<path d="M440.01 569.46H397.01V572.46H440.01V569.46Z" fill="#535461"/>
<path d="M654.01 569.46H611.01V572.46H654.01V569.46Z" fill="#535461"/>
</svg>
