<svg width="1005" height="712" viewBox="0 0 1005 712" fill="none" xmlns="http://www.w3.org/2000/svg">
<g clip-path="url(#clip0)">
<path d="M705 309.415H703.125V644.659H705V309.415Z" fill="#3F3D56"/>
<path d="M704.424 615.929C724.614 615.929 740.981 578.579 740.981 532.505C740.981 486.431 724.614 449.08 704.424 449.08C684.235 449.08 667.868 486.431 667.868 532.505C667.868 578.579 684.235 615.929 704.424 615.929Z" fill="#3F3D56"/>
<path d="M704.424 425.647C724.614 425.647 740.981 388.296 740.981 342.222C740.981 296.148 724.614 258.798 704.424 258.798C684.235 258.798 667.868 296.148 667.868 342.222C667.868 388.296 684.235 425.647 704.424 425.647Z" fill="#3F3D56"/>
<path d="M705.322 274.065L703.526 273.527C703.64 273.148 714.661 235.379 696.564 211.066C686.343 197.334 668.804 190.371 644.434 190.371V188.497C669.433 188.497 687.48 195.716 698.073 209.954C716.73 235.029 705.439 273.678 705.322 274.065Z" fill="#3F3D56"/>
<path d="M644.434 212.868C657.376 212.868 667.868 202.376 667.868 189.434C667.868 176.492 657.376 166 644.434 166C631.492 166 621 176.492 621 189.434C621 202.376 631.492 212.868 644.434 212.868Z" fill="#6C63FF"/>
<path d="M624.758 15.9351H193.576V17.8098H624.758V15.9351Z" fill="#3F3D56"/>
<path d="M464.81 33.6194C474.646 33.6194 482.619 25.6457 482.619 15.8097C482.619 5.97367 474.646 -2 464.81 -2C454.974 -2 447 5.97367 447 15.8097C447 25.6457 454.974 33.6194 464.81 33.6194Z" fill="#6C63FF"/>
<path d="M417.5 654.996C648.079 654.996 835 650.655 835 645.299C835 639.943 648.079 635.602 417.5 635.602C186.921 635.602 0 639.943 0 645.299C0 650.655 186.921 654.996 417.5 654.996Z" fill="#3F3D56"/>
<path d="M417.5 684.088C577.132 684.088 706.538 681.082 706.538 677.375C706.538 673.667 577.132 670.661 417.5 670.661C257.868 670.661 128.462 673.667 128.462 677.375C128.462 681.082 257.868 684.088 417.5 684.088Z" fill="#3F3D56"/>
<path d="M417.632 711.943C547.851 711.943 653.414 709.491 653.414 706.467C653.414 703.442 547.851 700.99 417.632 700.99C287.414 700.99 181.851 703.442 181.851 706.467C181.851 709.491 287.414 711.943 417.632 711.943Z" fill="#3F3D56"/>
<path d="M450.783 239L450.618 326.8L450.453 414.599L442.855 394.217V394.165L433 589.624C442.69 615.546 447.865 629.395 447.92 629.447C447.975 629.5 453.481 629.813 460.142 630.127C480.293 631.067 505.288 633.106 524.282 635.353C528.686 635.876 532.43 636.137 532.706 635.928C532.981 635.719 533.036 546.351 532.981 437.281L532.816 239H450.783V239Z" fill="#B1060F"/>
<path d="M302 239.052V437.384C302 546.472 302.111 635.821 302.276 635.977C302.442 636.134 309.57 635.455 318.19 634.567C326.809 633.68 338.689 632.531 344.601 632.061C353.663 631.33 380.848 629.711 383.943 629.659C384.882 629.659 384.937 625.22 385.048 545.637L385.213 461.614L391.789 479.16C392.783 481.876 393.115 482.711 394.109 485.375L404 290.124C401.9 284.536 403.005 287.46 400.629 281.089C392.562 259.523 385.711 241.298 385.434 240.462L384.882 239H302L302 239.052Z" fill="#B1060F"/>
<path d="M302 239.052L385.151 461.773V461.668L391.726 479.214C428.246 576.919 447.86 629.348 447.97 629.453C448.026 629.505 453.551 629.818 460.236 630.131C480.457 631.071 505.541 633.108 524.602 635.353C528.967 635.876 532.779 636.137 533 635.928L450.567 414.722V414.774L442.943 394.408C435.484 374.512 430.511 361.196 400.511 281.09C392.444 259.523 385.593 241.298 385.317 240.462L384.764 239H343.382L302 239.052V239.052Z" fill="#E50914"/>
<path d="M209.706 52V52C185.568 52 166 73.0481 166 99.0123V132H176.467L182.528 119.778L181.012 132H248.293L253.802 120.889L252.425 132H260V106.099C260 76.2209 237.483 52 209.706 52Z" fill="#2F2E41"/>
<path d="M199.417 119.134C199.417 119.134 204.625 135.329 199.417 137.354C194.208 139.378 189 191 189 191L230.667 180.878L239 140.39C239 140.39 224.417 118.122 226.5 108L199.417 119.134Z" fill="#FBBEBE"/>
<path d="M318.285 331L324.455 342.284C324.455 342.284 361.48 353.569 351.195 372.035C340.911 390.5 315.199 351.517 315.199 351.517L308 335.103L318.285 331Z" fill="#FBBEBE"/>
<path d="M51.6419 285L42.3197 292.083C42.3197 292.083 -1.1843 311.308 14.3528 319.402C29.8899 327.497 49.5703 302.201 49.5703 302.201L62 292.083L51.6419 285Z" fill="#FBBEBE"/>
<path d="M109 331L126.024 451.488C126.024 451.488 133.762 492.322 148.206 547.777L153.365 575L174 567.942C174 567.942 168.841 522.57 169.873 500.388C170.905 478.207 166.778 453 166.778 453C166.778 453 157.492 370.322 163.683 352.174C169.873 334.025 109 331 109 331Z" fill="#FBBEBE"/>
<path opacity="0.1" d="M109 331L126.024 451.488C126.024 451.488 133.762 492.322 148.206 547.777L153.365 575L174 567.942C174 567.942 168.841 522.57 169.873 500.388C170.905 478.207 166.778 453 166.778 453C166.778 453 157.492 370.322 163.683 352.174C169.873 334.025 109 331 109 331Z" fill="black"/>
<path d="M116.143 336C116.143 336 29.3572 372.235 53.1199 403.438C76.8827 434.641 129.574 475.908 129.574 475.908L138.872 490L153.337 473.895L129.574 438.667C129.574 438.667 107.878 406.458 98.5791 400.418L174 356.131L116.143 336Z" fill="#FBBEBE"/>
<path d="M177.03 563L151.189 573.062C151.189 573.062 152.223 615.32 142.92 622.364C133.617 629.407 137.751 640.518 153.256 637.5C168.761 634.482 169.795 630.413 169.795 630.413L177.03 603.246L174.963 626.388L180.131 625.382L183.232 600.228C183.232 600.228 192.535 572.055 177.03 563Z" fill="#2F2E41"/>
<path d="M135 486.283C135 486.283 154.594 532.726 152.531 540.803C150.469 548.88 149.438 567.054 165.938 558.977C182.438 550.899 187.594 536.765 187.594 536.765L181.406 501.427L196.875 521.62L201 518.591L185.531 494.36C185.531 494.36 168 465.081 153.563 467.1L135 486.283Z" fill="#2F2E41"/>
<path d="M204 127C220.569 127 234 114.016 234 98C234 81.9837 220.569 69 204 69C187.431 69 174 81.9837 174 98C174 114.016 187.431 127 204 127Z" fill="#FBBEBE"/>
<path d="M196.223 176.841L235.798 136L247.937 145.664L280 161.755L231.389 247.241C231.389 247.241 217.943 273.389 220.011 288.475C222.08 303.56 216.909 366.92 179.674 381C179.674 381 122.789 337.754 111.411 340.772C100.034 343.789 99 346.806 99 346.806C99 346.806 110.377 270.372 143.474 248.246C143.474 248.246 162.091 231.149 158.989 218.075C155.886 205.001 154.851 144.658 154.851 144.658L200.936 136L196.223 176.841Z" fill="#3F3D56"/>
<path d="M264.347 158L279.783 161.033L298.305 259.081L323 337.924L295.217 345L252 201.465L264.347 158Z" fill="#3F3D56"/>
<path d="M160.894 147.018L154.681 144L104.982 224.5L47 285.882L70.814 305L164 193.306L160.894 147.018Z" fill="#3F3D56"/>
<path d="M221.619 64.9461C219.528 62.2085 216.818 59.9775 213.699 58.426C210.581 56.8746 207.138 56.0444 203.637 56H202.784C186.335 56 173 70.5112 173 88.4117V88.4118H178.512L179.402 81.8064L180.707 88.4118H213.396L216.135 82.8235L215.45 88.4118H221.881C224.882 102.941 220.57 117.471 208.946 132H219.901L225.378 120.824L224.009 132H244.892L249 106.294C249 87.0427 237.527 70.7179 221.619 64.9461Z" fill="#2F2E41"/>
</g>
<defs>
<clipPath id="clip0">
<rect width="1004.25" height="711.943" fill="white"/>
</clipPath>
</defs>
</svg>
