<svg width="792" height="659" viewBox="0 0 792 659" fill="none" xmlns="http://www.w3.org/2000/svg">
<g clip-path="url(#clip0)">
<path d="M275.175 626.469C274.154 626.49 273.167 626.837 272.359 627.46C269.958 621.116 266.242 617.04 262.067 617.04C257.892 617.04 254.176 621.116 251.776 627.46C250.967 626.837 249.98 626.49 248.959 626.469C244.216 626.469 240.372 634.491 240.372 644.385H283.763C283.763 634.491 279.918 626.469 275.175 626.469Z" fill="#6C63FF"/>
<path d="M168.175 626.469C167.154 626.49 166.167 626.837 165.359 627.46C162.958 621.116 159.242 617.04 155.067 617.04C150.892 617.04 147.176 621.116 144.776 627.46C143.967 626.837 142.98 626.49 141.959 626.469C137.216 626.469 133.372 634.491 133.372 644.385H176.763C176.763 634.491 172.918 626.469 168.175 626.469Z" fill="#6C63FF"/>
<path d="M584.175 626.469C583.154 626.49 582.167 626.837 581.359 627.46C578.958 621.116 575.242 617.04 571.067 617.04C566.892 617.04 563.176 621.116 560.776 627.46C559.967 626.837 558.98 626.49 557.959 626.469C553.216 626.469 549.372 634.491 549.372 644.385H592.763C592.763 634.491 588.918 626.469 584.175 626.469Z" fill="#6C63FF"/>
<path d="M680 642.644H99V644.644H680V642.644Z" fill="#3F3D56"/>
<path d="M273.763 644.385H212.372V643.385C212.372 629.074 217.974 617.863 225.126 617.863C226.302 617.871 227.458 618.17 228.49 618.735C232.075 609.959 237.347 604.957 243.067 604.957C248.787 604.957 254.059 609.959 257.644 618.735C258.676 618.17 259.832 617.871 261.008 617.863C268.16 617.863 273.763 629.074 273.763 643.385V644.385ZM214.382 642.385H271.752C271.503 630.077 266.685 619.863 261.008 619.863C259.822 619.893 258.677 620.301 257.74 621.029L256.681 621.796L256.218 620.573C252.943 611.919 248.15 606.957 243.067 606.957C237.984 606.957 233.191 611.919 229.916 620.573L229.454 621.796L228.395 621.029C227.457 620.301 226.312 619.893 225.126 619.863C219.45 619.863 214.631 630.077 214.382 642.385Z" fill="#3F3D56"/>
<path d="M631.763 644.385H570.371V643.385C570.371 629.074 575.974 617.863 583.126 617.863C584.302 617.871 585.458 618.17 586.49 618.735C590.075 609.959 595.348 604.957 601.067 604.957C606.786 604.957 612.059 609.959 615.644 618.735C616.676 618.17 617.832 617.871 619.008 617.863C626.16 617.863 631.763 629.074 631.763 643.385V644.385ZM572.381 642.385H629.753C629.504 630.077 624.685 619.863 619.008 619.863C617.822 619.893 616.677 620.301 615.74 621.029L614.681 621.796L614.218 620.573C610.943 611.919 606.149 606.957 601.067 606.957C595.984 606.957 591.19 611.919 587.916 620.573L587.453 621.796L586.394 621.029C585.457 620.301 584.312 619.893 583.126 619.863C577.449 619.863 572.63 630.077 572.381 642.385Z" fill="#3F3D56"/>
<path d="M174.763 644.385H113.372V643.385C113.372 629.074 118.974 617.863 126.126 617.863C127.302 617.871 128.458 618.17 129.49 618.735C133.075 609.959 138.347 604.957 144.067 604.957C149.787 604.957 155.059 609.959 158.644 618.735C159.676 618.17 160.832 617.871 162.008 617.863C169.16 617.863 174.763 629.074 174.763 643.385V644.385ZM115.382 642.385H172.753C172.504 630.077 167.685 619.863 162.008 619.863C160.822 619.893 159.677 620.301 158.74 621.029L157.681 621.796L157.218 620.573C153.943 611.919 149.15 606.957 144.067 606.957C138.984 606.957 134.191 611.919 130.916 620.573L130.454 621.796L129.395 621.029C128.458 620.301 127.312 619.893 126.126 619.863C120.45 619.863 115.631 630.077 115.382 642.385Z" fill="#3F3D56"/>
<path d="M400.831 284.112C401.019 283.814 400.529 283.165 399.735 282.663C398.941 282.16 398.144 281.994 397.956 282.291C397.767 282.589 398.258 283.238 399.052 283.741C399.846 284.243 400.642 284.41 400.831 284.112Z" fill="#3F3D56"/>
<path d="M398.044 278.572C398.466 277.905 399.137 277.433 399.907 277.26C400.678 277.086 401.485 277.227 402.153 277.649L439.888 301.545C440.555 301.967 441.027 302.638 441.2 303.408C441.373 304.179 441.233 304.986 440.81 305.654V305.654L398.044 278.572Z" fill="#6C63FF"/>
<path d="M394.476 279.836L395.663 277.961C395.952 277.505 396.41 277.182 396.936 277.064C397.463 276.946 398.015 277.042 398.471 277.33L441.435 304.538C441.975 304.88 442.357 305.422 442.497 306.046C442.637 306.669 442.524 307.323 442.182 307.863L441.195 309.421L394.476 279.836Z" fill="#3F3D56"/>
<path d="M400.873 280.865L400.417 281.584L403.293 283.405L403.748 282.686L400.873 280.865Z" fill="#D0CDE1"/>
<path d="M404.826 283.369L404.371 284.088L407.246 285.908L407.701 285.19L404.826 283.369Z" fill="#D0CDE1"/>
<path d="M461.773 196.052C476.586 196.052 488.594 184.044 488.594 169.231C488.594 154.418 476.586 142.41 461.773 142.41C446.96 142.41 434.952 154.418 434.952 169.231C434.952 184.044 446.96 196.052 461.773 196.052Z" fill="#FFB8B8"/>
<path d="M463.409 188.202C463.409 188.202 476.492 208.808 473.221 214.696C469.95 220.583 459.811 236.61 459.811 236.61C459.811 236.61 504.948 203.248 499.061 196.052C499.061 196.052 485.65 184.604 484.996 177.408L463.409 188.202Z" fill="#FFB8B8"/>
<path d="M484.342 581.992L485.65 602.599L506.584 599.001L505.275 579.049L484.342 581.992Z" fill="#FFB8B8"/>
<path d="M391.123 593.459L387.198 606.542L410.421 610.794L413.692 598.692L391.123 593.459Z" fill="#FFB8B8"/>
<path d="M486.468 304.48L488.594 319.036C488.594 319.036 515.415 372.35 486.304 398.517L447.054 495.334C447.054 495.334 442.802 545.705 430.373 563.368L418.925 603.599L384.908 594.768L412.383 507.436C412.383 507.436 412.056 470.803 415.981 462.626L433.317 384.78L436.424 301.537C436.424 301.537 482.216 298.266 486.468 304.48Z" fill="#2F2E41"/>
<path d="M481.398 395.228L496.117 494.661C496.117 494.661 503.967 532.93 504.621 547.649C505.275 562.368 507.892 581.338 507.892 581.338L481.398 585.591L455.231 457.374L481.398 395.228Z" fill="#2F2E41"/>
<path d="M510.509 588.534L489.575 589.843C489.575 589.843 481.782 581.011 482.244 585.591C482.706 590.17 477.8 609.468 477.8 609.468L461.446 626.476C461.446 626.476 429.065 626.476 433.971 642.176C438.877 657.876 477.146 644.793 477.146 644.793L491.865 639.887V646.428C491.865 646.428 517.05 650.026 517.704 643.484C518.359 636.943 517.704 628.766 516.723 628.111C515.742 627.457 510.509 588.534 510.509 588.534Z" fill="#2F2E41"/>
<path d="M413.763 604.68C413.763 604.68 398.8 603.483 396.705 601.687C394.61 599.891 391.318 592.41 386.829 597.198C382.34 601.986 366.18 617.548 366.18 617.548L350.618 625.029C350.618 625.029 330.269 619.643 323.385 632.212C316.502 644.781 357.202 657.948 367.676 653.759L380.844 651.065L380.245 657.35C380.245 657.35 398.8 661.539 401.493 656.153C404.186 650.766 406.281 644.482 405.084 642.686C403.887 640.89 413.763 604.68 413.763 604.68Z" fill="#2F2E41"/>
<path d="M524.246 229.415L501.076 280.678L491.014 302.933L487.286 311.186L433.317 310.531L438.877 272.917C431.027 252.638 449.671 244.46 449.671 244.46L465.371 227.73V230.396C465.371 230.396 480.744 212.079 487.613 201.612C494.481 191.146 503.967 195.071 503.967 195.071C520.321 193.435 524.246 229.415 524.246 229.415Z" fill="#575A89"/>
<path opacity="0.2" d="M501.076 280.679L491.014 302.933C487.783 296.889 485.323 290.043 485.323 286C485.323 274.879 496.444 280.767 496.444 280.767C496.444 280.767 487.449 231.541 487.449 216.822C487.449 207.045 495.6 250.433 501.076 280.679Z" fill="black"/>
<path d="M492.192 284.365L443.456 283.384C443.456 283.384 407.804 286.327 413.038 300.719C418.271 315.111 446.727 300.719 446.727 300.719L503.64 309.55L492.192 284.365Z" fill="#FFB8B8"/>
<path d="M501.35 197.687C501.35 197.687 484.342 198.996 484.342 213.714C484.342 228.433 499.715 280.767 499.715 280.767C499.715 280.767 488.594 274.879 488.594 286C488.594 297.121 507.238 329.502 509.2 307.915C509.2 307.915 537.33 321.652 535.694 295.813C534.059 269.973 516.396 215.35 516.396 215.35C516.396 215.35 514.434 196.706 501.35 197.687Z" fill="#575A89"/>
<path d="M462.665 166.314C460.787 164.496 460.822 161.431 459.308 159.3C456.931 155.954 451.982 156.178 447.919 156.756C445.2 157.023 442.528 157.644 439.97 158.602C438.848 159.064 437.849 159.78 437.051 160.694C436.253 161.607 435.679 162.694 435.372 163.868C435.054 165.186 434.352 161.446 433.638 156.602C432.906 151.66 433.763 146.613 436.083 142.188C438.404 137.764 442.069 134.19 446.551 131.982C446.605 131.956 446.657 131.93 446.71 131.905C451.306 129.671 456.121 127.699 461.201 127.145C466.281 126.59 471.702 127.594 475.686 130.794C477.507 132.256 478.988 134.134 480.941 135.416C484.371 137.668 488.715 137.777 492.791 138.252C497.431 138.654 501.933 140.035 506 142.305C510.089 144.617 513.101 148.448 514.383 152.966C515.674 158.224 513.568 164.439 508.399 166.72C507.496 167.1 506.696 167.688 506.062 168.435C501.818 173.624 508.67 176.463 509.664 180.979C510.493 184.748 506.869 188.16 503.152 189.198C499.654 190.068 495.963 189.693 492.71 188.139C489.458 186.586 486.848 183.949 485.326 180.681C484.051 177.725 483.761 174.454 483.414 171.254C483.017 167.59 473.407 160.953 479.895 165.945C481.154 166.888 482.146 168.142 482.773 169.585C484.746 174.309 480.65 176.991 478.453 180.364C477.257 182.262 476.617 184.456 476.605 186.699C476.593 188.941 477.21 191.142 478.385 193.052C475.574 191.478 473.4 188.972 472.239 185.966C471.078 182.96 471.003 179.643 472.027 176.588C472.616 174.985 473.509 173.503 474.044 171.881C474.879 169.35 474.141 164.432 470.406 165.429C467.74 166.141 465.461 169.02 462.665 166.314Z" fill="#2F2E41"/>
<path d="M681.237 510.784C687.865 510.784 693.237 505.411 693.237 498.784C693.237 492.156 687.865 486.784 681.237 486.784C674.61 486.784 669.237 492.156 669.237 498.784C669.237 505.411 674.61 510.784 681.237 510.784Z" fill="#D0CDE1"/>
<path d="M651.237 557.784C662.283 557.784 671.237 548.829 671.237 537.784C671.237 526.738 662.283 517.784 651.237 517.784C640.191 517.784 631.237 526.738 631.237 537.784C631.237 548.829 640.191 557.784 651.237 557.784Z" fill="#6C63FF"/>
<path d="M657.639 549.784H655.639V642.784H657.639V549.784Z" fill="#3F3D56"/>
<path d="M657.237 551.784C653.084 551.784 649.024 550.552 645.57 548.245C642.117 545.937 639.425 542.657 637.836 538.82C636.246 534.983 635.83 530.76 636.641 526.687C637.451 522.613 639.451 518.871 642.388 515.934C645.325 512.998 649.067 510.998 653.14 510.187C657.214 509.377 661.436 509.793 665.274 511.382C669.111 512.972 672.391 515.663 674.698 519.117C677.006 522.57 678.237 526.63 678.237 530.784C678.231 536.351 676.016 541.689 672.079 545.626C668.143 549.563 662.805 551.777 657.237 551.784ZM657.237 511.784C653.479 511.784 649.806 512.898 646.681 514.986C643.557 517.073 641.122 520.041 639.683 523.513C638.245 526.985 637.869 530.805 638.602 534.49C639.335 538.176 641.145 541.562 643.802 544.219C646.459 546.876 649.845 548.685 653.53 549.419C657.216 550.152 661.036 549.775 664.508 548.337C667.98 546.899 670.947 544.464 673.035 541.339C675.123 538.215 676.237 534.542 676.237 530.784C676.231 525.746 674.228 520.917 670.666 517.355C667.104 513.793 662.275 511.789 657.237 511.784V511.784Z" fill="#3F3D56"/>
<path d="M674.237 515.784C671.666 515.784 669.153 515.021 667.015 513.593C664.877 512.164 663.211 510.134 662.227 507.759C661.243 505.383 660.985 502.769 661.487 500.248C661.989 497.726 663.227 495.409 665.045 493.591C666.863 491.773 669.179 490.535 671.701 490.033C674.223 489.532 676.837 489.789 679.212 490.773C681.588 491.757 683.618 493.423 685.046 495.561C686.475 497.699 687.237 500.213 687.237 502.784C687.233 506.23 685.862 509.535 683.425 511.972C680.988 514.409 677.684 515.78 674.237 515.784ZM674.237 491.784C672.062 491.784 669.935 492.429 668.126 493.638C666.317 494.846 664.907 496.564 664.075 498.574C663.242 500.584 663.024 502.796 663.449 504.93C663.873 507.064 664.921 509.023 666.459 510.562C667.997 512.1 669.957 513.148 672.091 513.572C674.225 513.997 676.437 513.779 678.447 512.946C680.457 512.114 682.175 510.704 683.383 508.895C684.592 507.086 685.237 504.959 685.237 502.784C685.234 499.867 684.074 497.071 682.012 495.009C679.95 492.947 677.154 491.787 674.237 491.784V491.784Z" fill="#3F3D56"/>
</g>
<defs>
<clipPath id="clip0">
<rect width="791.237" height="658.517" fill="white"/>
</clipPath>
</defs>
</svg>
