<svg width="963" height="789" viewBox="0 0 963 789" fill="none" xmlns="http://www.w3.org/2000/svg">
<path d="M543.066 258.836L520.841 259.698L521.949 288.274L544.174 287.412L543.066 258.836Z" fill="#6C63FF"/>
<path d="M442.807 358.915C442.807 358.915 412.028 344.209 412.52 356.91C413.013 369.61 443.545 377.966 443.545 377.966L442.807 358.915Z" fill="#FFB9B9"/>
<path d="M459.693 466.376C459.693 466.376 445.172 501.917 439.807 527.564C434.442 553.211 426.271 588.506 436.781 613.538C447.291 638.569 477.173 712.137 477.481 720.075C477.789 728.013 474.921 736.074 481.272 735.827C487.622 735.581 522.178 724.701 523.581 719.877C524.984 715.053 511.791 702.845 511.791 702.845L479.214 600.763L513.203 534.258L537.72 633.473L542.522 757.301C542.522 757.301 566.089 750.027 569.51 756.254C569.51 756.254 580.069 741.536 581.41 735.124C582.751 728.712 576.423 606.533 576.423 606.533C576.423 606.533 598.056 467.37 580.593 468.047C563.13 468.724 494.729 426.859 459.693 466.376Z" fill="#2F2E41"/>
<path d="M483.657 732.722C483.657 732.722 467.549 768.325 466.023 769.974C464.497 771.623 454 787.93 461.937 787.622C469.875 787.314 488.618 778.638 502.413 765.383C516.209 752.129 534.397 729.165 532.748 727.639C531.099 726.113 519.801 721.781 519.801 721.781L483.657 732.722Z" fill="#2F2E41"/>
<path d="M545.389 749.24C545.389 749.24 544.417 765.177 541.488 771.65C538.559 778.124 538.929 787.649 546.866 787.341C554.804 787.033 575.319 783.058 575.319 783.058C575.319 783.058 576.537 773.471 574.888 771.945C573.239 770.419 566.212 753.202 569.202 748.317C572.192 743.431 545.389 749.24 545.389 749.24Z" fill="#2F2E41"/>
<path d="M557.132 232.057C557.132 232.057 574.054 258.43 580.651 264.534C587.247 270.638 568.689 284.077 568.689 284.077L535.474 288.545C535.474 288.545 535.892 258.32 534.181 255.206C532.47 252.093 557.132 232.057 557.132 232.057Z" fill="#FFB9B9"/>
<path d="M528.262 266.565C528.262 266.565 535.104 279.019 541.454 278.773C547.805 278.527 580.651 264.534 582.053 259.709C583.456 254.885 592.933 294.266 592.933 294.266L512.562 435.707L492.957 422.158L502.456 339.113L510.258 294.292L528.262 266.565Z" fill="#6C63FF"/>
<path d="M585.018 393.149C581.812 399.855 579.81 406.849 580.087 414.009C580.099 414.327 580.112 414.644 580.14 414.961C580.901 429.654 586.313 446.647 588.255 459.005C589.664 467.87 589.263 474.341 584.076 475.862C571.498 479.529 585.909 482.15 537.25 498.347C488.59 514.543 480.098 500.563 479.975 497.388C479.852 494.213 486.866 470.092 485.217 468.566C483.568 467.04 462.143 488.54 455.669 485.611C449.196 482.682 454.931 466.56 454.931 466.56C454.931 466.56 469.513 432.606 469.205 424.669C468.898 416.731 491.295 379.294 491.295 379.294L506.529 280.127C506.529 280.127 512.386 267.181 520.262 265.285C528.139 263.39 534.673 267.906 534.673 267.906L521.493 297.036L507.588 348.453L509.914 367.442C509.914 367.442 526.085 333.427 536.705 320.295C547.325 307.164 569.969 276.077 569.969 276.077C569.969 276.077 575.255 258.24 571.264 252.909C567.273 247.563 587.911 246.763 596.711 268.681C601.374 280.297 608.946 297.62 613.69 313.749C617.917 328.037 619.913 341.395 615.726 349.03C609.326 360.694 593.226 376.025 585.018 393.149Z" fill="#575A89"/>
<path opacity="0.1" d="M615.726 349.03C609.326 360.694 593.226 376.025 585.018 393.149C582.874 385.425 580.259 377.434 580.259 377.434C580.259 377.434 570.228 323.765 599.899 309.895C604.815 309.42 609.732 310.794 613.69 313.749C617.917 328.037 619.913 341.395 615.726 349.03Z" fill="black"/>
<path d="M497.94 345.648L472.785 352.983L437.859 354.337L434.266 384.685L491.664 388.819C491.664 388.819 506.001 348.515 497.94 345.648Z" fill="#575A89"/>
<path d="M538.958 447.687C538.958 447.687 505.306 453.27 512.987 463.397C520.667 473.524 550.478 462.877 550.478 462.877L538.958 447.687Z" fill="#FFB9B9"/>
<path opacity="0.1" d="M580.14 414.961C580.901 429.654 586.314 446.647 588.255 459.005C577.535 469.151 567.341 478.101 563.499 478.25C555.561 478.557 542.8 477.462 538.099 479.235C533.397 481.007 530.64 450.905 530.64 450.905C530.64 450.905 533.446 441.257 545.962 436.001C554.409 432.446 570.603 422.803 580.14 414.961Z" fill="black"/>
<path d="M599.529 300.37C599.529 300.37 626.395 296.148 624.943 340.723C623.492 385.297 627.775 413.75 616.97 422.118C606.165 430.487 571.068 468.417 563.13 468.724C555.192 469.032 542.43 467.937 537.729 469.709C533.028 471.482 530.271 441.38 530.271 441.38C530.271 441.38 533.077 431.731 545.592 426.476C558.108 421.221 587.594 402.588 587.348 396.238C587.102 389.888 579.889 367.909 579.889 367.909C579.889 367.909 569.859 314.24 599.529 300.37Z" fill="#575A89"/>
<path d="M533.442 271.108C552.746 271.108 568.394 255.459 568.394 236.156C568.394 216.852 552.746 201.203 533.442 201.203C514.139 201.203 498.49 216.852 498.49 236.156C498.49 255.459 514.139 271.108 533.442 271.108Z" fill="#FFB9B9"/>
<path d="M509.908 186.059C509.065 186.785 508.055 187.292 506.969 187.534C506.424 187.631 505.862 187.508 505.407 187.193C504.952 186.878 504.639 186.395 504.539 185.85C503.739 187.509 502.837 189.276 501.204 190.127C499.572 190.978 497.047 190.265 496.812 188.438C496.573 189.825 495.96 191.12 495.038 192.182C494.025 193.148 492.188 193.392 491.304 192.307C492.019 196.215 491.577 200.233 491.802 204.199C492.026 208.165 493.084 212.37 496.08 214.977C500.45 218.781 507.021 217.842 512.77 217.122C513.639 216.939 514.541 216.988 515.385 217.265C517.537 218.182 517.44 221.178 517.469 223.517C517.644 227.622 519.269 231.531 522.054 234.551C524.839 237.572 528.604 239.507 532.681 240.015C534.962 240.367 537.29 239.799 539.153 238.435C540.785 237.052 541.619 234.797 543.489 233.758C546.531 232.067 550.221 234.533 552.445 237.209C554.669 239.886 556.861 243.179 560.306 243.669C564.863 244.317 568.334 239.673 570.037 235.396C572.386 229.403 573.512 223 573.347 216.565C573.183 210.129 571.731 203.792 569.079 197.927C559.564 177.186 527.06 173.905 509.908 186.059Z" fill="#2F2E41"/>
</svg>
