<svg width="845" height="495" viewBox="0 0 845 495" fill="none" xmlns="http://www.w3.org/2000/svg">
<g clip-path="url(#clip0)">
<path d="M513 479.974H293V481.974H513V479.974Z" fill="#3F3D56"/>
<path d="M399.944 3.20737C399.944 3.20737 386.903 -1.4502 378.52 17.18C370.136 35.8102 357.095 56.3035 357.095 56.3035L364.547 58.1665C364.547 58.1665 366.41 45.1253 371.067 43.2623L369.204 60.0295C369.204 60.0295 425.095 79.5912 450.246 58.1665L449.314 51.6459C449.314 51.6459 453.04 52.5774 453.04 58.1665L455.835 55.372C455.835 55.372 453.04 49.7829 444.657 42.3308C439.154 37.4396 437.263 28.1341 436.613 22.3161C436.127 17.4581 434.183 12.8606 431.037 9.12657C425.466 2.66972 415.314 -4.19297 399.944 3.20737Z" fill="#2F2E41"/>
<path d="M362.335 414.136L366.335 437.136L382.335 434.136L385.335 414.136H362.335Z" fill="#FFB9B9"/>
<path d="M385.335 427.136L363.335 429.136L364.335 447.136L363.335 470.136C363.335 470.136 350.335 496.136 369.335 494.136C388.335 492.136 386.335 482.136 386.335 482.136L391.335 476.136L388.335 461.136L385.335 427.136Z" fill="#2F2E41"/>
<path d="M452.335 414.136L448.335 437.136L432.335 434.136L429.335 414.136H452.335Z" fill="#FFB9B9"/>
<path d="M429.335 427.136L451.335 429.136L450.335 447.136L451.335 470.136C451.335 470.136 464.335 496.136 445.335 494.136C426.335 492.136 428.335 482.136 428.335 482.136L423.335 476.136L426.335 461.136L429.335 427.136Z" fill="#2F2E41"/>
<path d="M406.335 65.1362C419.037 65.1362 429.335 54.8388 429.335 42.1362C429.335 29.4337 419.037 19.1362 406.335 19.1362C393.632 19.1362 383.335 29.4337 383.335 42.1362C383.335 54.8388 393.632 65.1362 406.335 65.1362Z" fill="#FFB9B9"/>
<path d="M391.335 54.1362L394.335 90.1362L422.335 89.1362C422.335 89.1362 414.335 66.1362 419.335 57.1362L391.335 54.1362Z" fill="#FFB9B9"/>
<path d="M407.335 83.1361L418.853 75.9524L431.335 82.1361L451.335 91.1361L444.335 176.136C444.335 176.136 460.335 229.136 457.335 255.136C454.335 281.136 490.335 411.136 461.335 417.136C432.335 423.136 411.335 429.136 410.335 419.136C409.335 409.136 407.335 256.136 407.335 256.136C407.335 256.136 404.335 418.136 392.335 420.136C380.335 422.136 328.335 430.136 332.335 418.136C336.335 406.136 363.335 196.136 376.335 184.136L378.335 174.136L361.335 93.1361L393.259 77.2254L407.335 83.1361Z" fill="#2F2E41"/>
<path d="M347.335 207.136L346.335 248.136C346.335 248.136 336.709 288.615 353.022 288.376C369.335 288.136 357.335 248.136 357.335 248.136L364.335 208.136L347.335 207.136Z" fill="#FFB9B9"/>
<path d="M498.548 164.105L526.652 193.975C526.652 193.975 560.832 217.7 548.522 228.407C536.212 239.115 518.459 201.315 518.459 201.315L486.554 176.194L498.548 164.105Z" fill="#FFB9B9"/>
<path d="M376.835 181.636L445.325 179.536L444.435 174.886V174.866L378.235 173.666L376.835 181.636Z" fill="#D0CDE1"/>
<path d="M390.835 183.636C394.149 183.636 396.835 180.95 396.835 177.636C396.835 174.323 394.149 171.636 390.835 171.636C387.521 171.636 384.835 174.323 384.835 177.636C384.835 180.95 387.521 183.636 390.835 183.636Z" fill="#2F2E41"/>
<path d="M369.335 94.1362L362.835 92.6362C362.835 92.6362 354.335 96.1362 352.335 107.136C350.335 118.136 324.335 204.136 337.335 209.136C350.335 214.136 369.335 216.136 369.335 214.136C369.335 212.136 377.335 137.136 377.335 137.136L369.335 94.1362Z" fill="#2F2E41"/>
<path d="M430.5 97.948L451.335 91.1362C451.335 91.1362 461.335 91.1362 461.335 102.136C461.335 106.674 480.5 143.948 480.5 143.948C480.5 143.948 526.55 176.773 519.5 177.948C507.5 179.948 500.5 200.948 500.5 200.948L455.5 160.948L430.5 97.948Z" fill="#2F2E41"/>
<path d="M378.284 43.849C378.284 43.849 385.736 33.6024 392.256 31.7394C398.777 29.8763 399.708 20.5612 399.708 20.5612C399.708 20.5612 416.475 39.1915 426.722 40.1229C436.969 41.0544 427.654 17.7667 427.654 17.7667L409.023 13.1091L391.325 14.9721L377.352 24.2872L378.284 43.849Z" fill="#2F2E41"/>
<path d="M383.835 43.1362C385.492 43.1362 386.835 41.1215 386.835 38.6362C386.835 36.1509 385.492 34.1362 383.835 34.1362C382.178 34.1362 380.835 36.1509 380.835 38.6362C380.835 41.1215 382.178 43.1362 383.835 43.1362Z" fill="#FFB9B9"/>
</g>
<defs>
<clipPath id="clip0">
<rect width="844.5" height="494.246" fill="white"/>
</clipPath>
</defs>
</svg>
