<svg width="744" height="417" viewBox="0 0 744 417" fill="none" xmlns="http://www.w3.org/2000/svg">
<g clip-path="url(#clip0)">
<path d="M406.938 102H350.938V85C368.633 72.6851 384.312 73.7556 404.938 86L406.938 102Z" fill="#6C63FF"/>
<path d="M337.97 403.957L325.71 403.956L323.877 356.668L337.972 356.669L337.97 403.957Z" fill="#FFB8B8"/>
<path d="M341.096 415.841L301.566 415.839V415.339C301.566 413.319 301.964 411.318 302.737 409.451C303.51 407.584 304.643 405.888 306.072 404.459C307.501 403.031 309.197 401.897 311.064 401.124C312.931 400.351 314.932 399.953 316.952 399.953H316.953L341.097 399.954L341.096 415.841Z" fill="#2F2E41"/>
<path d="M407.023 403.957L419.283 403.956L421.116 356.668L407.021 356.669L407.023 403.957Z" fill="#FFB8B8"/>
<path d="M403.896 399.954L428.04 399.953H428.041C430.062 399.953 432.063 400.351 433.929 401.124C435.796 401.897 437.492 403.03 438.921 404.459C440.35 405.888 441.483 407.584 442.256 409.451C443.03 411.318 443.428 413.319 443.428 415.339V415.839L403.897 415.841L403.896 399.954Z" fill="#2F2E41"/>
<path d="M407.345 397.896C406.323 397.893 405.331 397.543 404.533 396.903C403.735 396.263 403.177 395.371 402.951 394.374L372.565 261.834C372.498 261.498 372.315 261.195 372.047 260.981C371.779 260.766 371.444 260.653 371.101 260.661H371.093C370.749 260.654 370.413 260.77 370.146 260.988C369.878 261.205 369.697 261.51 369.633 261.849L341.729 393.495C341.511 394.502 340.956 395.404 340.155 396.053C339.355 396.701 338.357 397.057 337.326 397.061H324.033C323.42 397.061 322.813 396.936 322.25 396.693C321.687 396.45 321.18 396.094 320.759 395.648C320.338 395.201 320.013 394.674 319.804 394.097C319.594 393.521 319.505 392.908 319.541 392.295L329.442 225.44L333.426 224.261L333.501 224.262L411.759 224.947L428.427 391.619C428.485 392.213 428.424 392.813 428.248 393.384C428.072 393.955 427.783 394.485 427.4 394.943C427.017 395.401 426.546 395.778 426.016 396.052C425.485 396.327 424.905 396.493 424.31 396.541L407.706 397.881C407.585 397.891 407.465 397.896 407.345 397.896Z" fill="#2F2E41"/>
<path d="M375.028 71.532C388.593 71.532 399.589 60.5356 399.589 46.9709C399.589 33.4063 388.593 22.4099 375.028 22.4099C361.463 22.4099 350.467 33.4063 350.467 46.9709C350.467 60.5356 361.463 71.532 375.028 71.532Z" fill="#FFB8B8"/>
<path d="M359.982 243.734C355.673 243.787 351.381 243.183 347.254 241.943C343.584 240.836 340.179 238.99 337.249 236.517C334.319 234.045 331.925 231 330.216 227.568C329.675 226.535 329.555 225.333 329.881 224.213C332.59 214.968 345.68 166.913 337.328 128.711C336.149 123.404 336.051 117.914 337.04 112.568C338.029 107.222 340.084 102.13 343.083 97.5963C346.013 93.0977 349.818 89.2351 354.272 86.2391C358.727 83.243 363.739 81.1748 369.01 80.1578L369.01 80.1568C370.396 79.8863 371.789 79.6646 373.15 79.4966C378.976 78.7794 384.89 79.359 390.466 81.1937C396.043 83.0285 401.145 86.0732 405.407 90.1099C409.797 94.2259 413.222 99.2613 415.437 104.856C417.653 110.45 418.604 116.465 418.223 122.47L411.804 225.474C411.76 226.246 411.516 226.994 411.095 227.643C410.675 228.292 410.093 228.821 409.406 229.177C402.014 233.051 379.807 243.734 359.982 243.734Z" fill="#3F3D56"/>
<path d="M402.775 28.8916C400.223 22.4797 395.55 17.1368 389.535 13.7547C383.519 10.3726 376.526 9.15599 369.722 10.3079L377.466 16.5657C367.844 16.8897 357.716 16.2008 350.847 22.945C353.034 22.8844 355.9 27.5623 358.087 27.5017C353.998 27.5825 350.29 30.4555 348.484 34.1249C346.812 37.8946 346.42 42.1087 347.37 46.122C348.178 50.1312 354.339 59.5236 355.997 63.2621C355.712 53.4919 374.946 30.1877 384.339 32.6197C379.567 34.3903 375.426 37.5342 372.438 41.655C378.828 38.4302 386.055 37.2478 393.139 38.268C394.756 38.6389 396.425 38.7323 398.074 38.5442C399.085 38.3443 400.027 37.8887 400.811 37.2208C401.596 36.5529 402.195 35.6951 402.554 34.7293C402.912 33.7635 403.017 32.7219 402.858 31.7041C402.699 30.6864 402.282 29.7263 401.646 28.9157L402.775 28.8916Z" fill="#2F2E41"/>
<path d="M358.29 237.549C357.67 237.548 357.056 237.418 356.488 237.168L309.888 216.828C308.898 216.404 308.094 215.636 307.625 214.667C307.156 213.697 307.053 212.591 307.334 211.551L338.184 95.0122C338.758 92.8437 339.758 90.8115 341.127 89.0343C342.495 87.2572 344.205 85.7709 346.155 84.6625C348.105 83.554 350.256 82.8457 352.483 82.5789C354.71 82.3122 356.968 82.4923 359.125 83.1089L371.46 86.6294L362.776 233.31C362.732 234.034 362.514 234.736 362.14 235.357C361.766 235.979 361.249 236.501 360.63 236.88C359.927 237.315 359.117 237.547 358.29 237.549V237.549Z" fill="#6C63FF"/>
<path d="M444.538 211.55L442.487 203.82L439.518 192.58L438.087 187.19L435.118 175.98L413.688 95.0099C413.116 92.8405 412.117 90.8071 410.748 89.0291C409.38 87.2511 407.671 85.7643 405.72 84.6558C403.77 83.5474 401.618 82.8396 399.39 82.5742C397.162 82.3087 394.904 82.4908 392.748 83.1099L380.417 86.6299L386.527 189.8L387.158 200.57L387.558 207.36V207.37L388.197 218.08L389.098 233.31C389.171 234.453 389.675 235.527 390.508 236.313C391.341 237.1 392.442 237.542 393.587 237.55C394.207 237.546 394.819 237.417 395.388 237.17L441.987 216.83C442.978 216.406 443.782 215.637 444.25 214.667C444.719 213.697 444.821 212.59 444.538 211.55V211.55Z" fill="#6C63FF"/>
<path d="M438.087 187.19L387.158 200.57L386.527 189.8L435.118 175.98L438.087 187.19Z" fill="#CCCCCC"/>
<path d="M442.487 203.82L388.197 218.08L387.558 207.37V207.36L439.518 192.58L442.487 203.82Z" fill="#CCCCCC"/>
<path d="M364.718 192.12L364.087 202.69L314.138 187.81L317.067 176.75L364.718 192.12Z" fill="#CCCCCC"/>
<path d="M363.677 209.65L312.707 193.2L309.777 204.29L363.057 220.16L363.677 209.65Z" fill="#CCCCCC"/>
<path d="M313.596 220.704C315.116 220.307 316.53 219.582 317.739 218.58C318.948 217.578 319.923 216.323 320.594 214.903C321.266 213.483 321.618 211.934 321.626 210.363C321.634 208.793 321.297 207.24 320.64 205.813L344.602 130.588L327.61 127.029L305.641 200.782C303.318 202.045 301.539 204.117 300.642 206.604C299.744 209.091 299.79 211.821 300.77 214.276C301.751 216.732 303.598 218.743 305.962 219.927C308.326 221.112 311.042 221.388 313.596 220.704V220.704Z" fill="#FFB8B8"/>
<path d="M345.267 93.6058C350.146 94.1035 352.89 99.5893 351.677 106.42L345.856 139.198C345.42 141.655 343.397 143.601 341.717 143.181L322.026 138.259C320.511 137.88 319.953 135.727 320.812 133.574L332.632 103.92C335.199 97.4802 340.536 93.1232 345.267 93.6058Z" fill="#3F3D56"/>
<path d="M356.844 242.453C346.573 228.791 338.454 213.639 332.768 197.521C332.439 196.557 332.462 195.507 332.834 194.559C333.206 193.61 333.903 192.824 334.8 192.341L369.945 173.51C370.514 173.203 371.145 173.03 371.791 173.003C372.436 172.977 373.079 173.099 373.671 173.359C374.273 173.62 374.808 174.016 375.235 174.516C375.661 175.016 375.968 175.606 376.132 176.243C380.223 191.774 387.912 206.125 398.578 218.133C399.017 218.622 399.338 219.205 399.518 219.837C399.698 220.468 399.732 221.133 399.616 221.78C399.505 222.416 399.25 223.019 398.87 223.542C398.491 224.065 397.997 224.495 397.427 224.798L362.281 243.63C361.382 244.109 360.342 244.254 359.347 244.038C358.351 243.823 357.464 243.261 356.844 242.453V242.453Z" fill="#EAEAEA"/>
<path d="M359.242 240.65C359.431 240.886 359.697 241.049 359.993 241.11C360.289 241.171 360.597 241.127 360.864 240.985L396.01 222.153C396.18 222.064 396.328 221.937 396.441 221.781C396.554 221.626 396.63 221.446 396.662 221.256C396.699 221.056 396.689 220.85 396.632 220.654C396.576 220.459 396.475 220.279 396.337 220.128C385.357 207.766 377.441 192.993 373.23 177.003C373.181 176.806 373.088 176.622 372.956 176.467C372.825 176.312 372.659 176.189 372.472 176.108C372.296 176.03 372.104 175.993 371.912 176.001C371.719 176.009 371.531 176.061 371.362 176.154L336.217 194.986C335.951 195.13 335.743 195.362 335.63 195.643C335.517 195.923 335.505 196.235 335.597 196.523C341.181 212.352 349.155 227.234 359.242 240.65V240.65Z" fill="white"/>
<path d="M372.253 200.384L353.111 208.834C352.383 209.154 351.558 209.173 350.816 208.885C350.074 208.598 349.477 208.028 349.155 207.301L348.681 206.228C348.361 205.5 348.343 204.675 348.63 203.933C348.917 203.192 349.487 202.594 350.214 202.272L369.356 193.823C370.084 193.502 370.909 193.484 371.651 193.771C372.393 194.059 372.99 194.629 373.312 195.356L373.785 196.428C374.106 197.156 374.124 197.982 373.837 198.723C373.55 199.465 372.98 200.062 372.253 200.384V200.384Z" fill="#CCCCCC"/>
<path d="M379.253 213.384L360.111 221.834C359.383 222.154 358.558 222.173 357.816 221.885C357.074 221.598 356.477 221.028 356.155 220.301L355.681 219.228C355.361 218.5 355.343 217.675 355.63 216.933C355.917 216.192 356.487 215.594 357.214 215.272L376.356 206.823C377.084 206.502 377.909 206.484 378.651 206.771C379.393 207.059 379.99 207.629 380.312 208.356L380.785 209.428C381.106 210.156 381.124 210.982 380.837 211.723C380.55 212.465 379.98 213.062 379.253 213.384V213.384Z" fill="#CCCCCC"/>
<path d="M374.938 1C383.25 1.00089 391.236 4.23708 397.204 10.0233C403.172 15.8095 406.654 23.6914 406.912 32H412.938C413.468 32 413.977 32.2107 414.352 32.5858C414.727 32.9609 414.937 33.4696 414.938 34V42C414.937 42.5304 414.727 43.0391 414.352 43.4142C413.977 43.7893 413.468 44 412.938 44H344.938C344.407 44 343.898 43.7893 343.523 43.4142C343.148 43.0391 342.938 42.5304 342.938 42V32.9999C342.937 28.7976 343.765 24.6365 345.373 20.7541C346.981 16.8716 349.339 13.344 352.31 10.3725C355.282 7.40104 358.809 5.04393 362.692 3.43579C366.574 1.82765 370.735 0.999975 374.938 1Z" fill="#6C63FF"/>
<path d="M371.997 183.251C372.546 183.315 373.09 183.422 373.623 183.571L411.269 151.287L409.069 139.441L426.511 133.784L432.445 154.375C432.924 156.038 432.851 157.813 432.236 159.431C431.622 161.049 430.498 162.425 429.036 163.35L381.358 193.521C381.392 195.652 380.776 197.743 379.592 199.516C378.409 201.289 376.713 202.659 374.732 203.445C372.75 204.231 370.576 204.395 368.499 203.915C366.423 203.435 364.541 202.334 363.105 200.759C361.669 199.184 360.746 197.208 360.46 195.096C360.174 192.984 360.538 190.834 361.503 188.934C362.468 187.033 363.99 185.471 365.864 184.456C367.739 183.441 369.878 183.021 371.997 183.252V183.251Z" fill="#FFB8B8"/>
<path d="M411.367 96.3132C416.579 94.8542 421.786 98.821 423.531 105.579L431.905 138.009C432.532 140.44 431.313 143.024 429.409 143.298L407.102 146.506C405.386 146.753 403.874 144.993 403.811 142.675L402.945 110.761C402.757 103.831 406.314 97.7276 411.367 96.3132Z" fill="#3F3D56"/>
<path d="M742.704 416.5H30.7036C30.4384 416.5 30.1841 416.395 29.9965 416.207C29.809 416.02 29.7036 415.765 29.7036 415.5C29.7036 415.235 29.809 414.98 29.9965 414.793C30.1841 414.605 30.4384 414.5 30.7036 414.5H742.704C742.969 414.5 743.223 414.605 743.411 414.793C743.598 414.98 743.704 415.235 743.704 415.5C743.704 415.765 743.598 416.02 743.411 416.207C743.223 416.395 742.969 416.5 742.704 416.5Z" fill="#CCCCCC"/>
</g>
<defs>
<clipPath id="clip0">
<rect width="743.704" height="416.5" fill="white"/>
</clipPath>
</defs>
</svg>
