<svg width="1043" height="710" viewBox="0 0 1043 710" fill="none" xmlns="http://www.w3.org/2000/svg">
<path d="M1042 0H0V709H1042V0Z" fill="#3F3D56"/>
<path d="M198 100H188V119H198V100Z" fill="#6C63FF"/>
<path d="M229 95H220V114H229V95Z" fill="#6C63FF"/>
<path d="M245 95H236V114H245V95Z" fill="#6C63FF"/>
<path d="M245 151H236V170H245V151Z" fill="#6C63FF"/>
<path d="M264 123H255V142H264V123Z" fill="#6C63FF"/>
<path d="M264 153H255V172H264V153Z" fill="#6C63FF"/>
<path d="M245 212H236V230H245V212Z" fill="#6C63FF"/>
<path d="M264 242H255V260H264V242Z" fill="#6C63FF"/>
<path d="M245 356H236V374H245V356Z" fill="#6C63FF"/>
<path d="M229 242H220V260H229V242Z" fill="#6C63FF"/>
<path d="M198 130H188V149H198V130Z" fill="#6C63FF"/>
<path d="M198 421H188V439H198V421Z" fill="#6C63FF"/>
<path d="M198 481H188V500H198V481Z" fill="#6C63FF"/>
<path d="M198 511H188V530H198V511Z" fill="#6C63FF"/>
<path d="M198 163H185V165H198V163Z" fill="#6C63FF"/>
<path d="M247 191H234V193H247V191Z" fill="#6C63FF"/>
<path d="M198 311H185V314H198V311Z" fill="#6C63FF"/>
<path d="M198 337H185V339H198V337Z" fill="#6C63FF"/>
<path d="M247 486H234V488H247V486Z" fill="#6C63FF"/>
<path d="M232 542H220V544H232V542Z" fill="#6C63FF"/>
<path d="M188 184V188.5H191.999V197.5H188V202H198V184H188Z" fill="#6C63FF"/>
<path d="M220 151V155.75H223.6V165.25H220V170H229V151H220Z" fill="#6C63FF"/>
<path d="M255 181V185.751H258.6V195.251H255V200H264V181H255Z" fill="#6C63FF"/>
<path d="M255 272V276.75H258.6V286.25H255V291H264V272H255Z" fill="#6C63FF"/>
<path d="M255 302V306.751H258.6V316.251H255V321H264V302H255Z" fill="#6C63FF"/>
<path d="M255 209V213.749H258.6V223.249H255V228H264V209H255Z" fill="#6C63FF"/>
<path d="M236 123V127.751H239.6V137.249H236V142H245V123H236Z" fill="#6C63FF"/>
<path d="M245 272H236V291H245V272Z" fill="#6C63FF"/>
<path d="M245 328H236V346H245V328Z" fill="#6C63FF"/>
<path d="M236 300V304.499H239.6V313.499H236V318H245V300H236Z" fill="#6C63FF"/>
<path d="M220 181V185.751H223.6V195.251H220V200H229V181H220Z" fill="#6C63FF"/>
<path d="M220 212V216.501H223.6V225.499H220V230H229V212H220Z" fill="#6C63FF"/>
<path d="M229 302H220V321H229V302Z" fill="#6C63FF"/>
<path d="M220 272V276.75H223.6V286.25H220V291H229V272H220Z" fill="#6C63FF"/>
<path d="M229 363H220V381H229V363Z" fill="#6C63FF"/>
<path d="M220 332V336.749H223.6V346.249H220V351H229V332H220Z" fill="#6C63FF"/>
<path d="M229 423H220V442H229V423Z" fill="#6C63FF"/>
<path d="M245 418H236V437H245V418Z" fill="#6C63FF"/>
<path d="M220 393V397.501H223.6V406.501H220V411H229V393H220Z" fill="#6C63FF"/>
<path d="M255 393V397.501H258.6V406.501H255V411H264V393H255Z" fill="#6C63FF"/>
<path d="M357 123H348V142H357V123Z" fill="#6C63FF"/>
<path d="M357 153H348V172H357V153Z" fill="#6C63FF"/>
<path d="M357 242H348V260H357V242Z" fill="#6C63FF"/>
<path d="M348 181V185.751H351.601V195.251H348V200H357V181H348Z" fill="#6C63FF"/>
<path d="M348 272V276.75H351.601V286.25H348V291H357V272H348Z" fill="#6C63FF"/>
<path d="M348 302V306.751H351.601V316.251H348V321H357V302H348Z" fill="#6C63FF"/>
<path d="M348 209V213.749H351.601V223.249H348V228H357V209H348Z" fill="#6C63FF"/>
<path d="M348 393V397.501H351.601V406.501H348V411H357V393H348Z" fill="#6C63FF"/>
<path d="M229 484H220V502H229V484Z" fill="#6C63FF"/>
<path d="M245 449H236V467H245V449Z" fill="#6C63FF"/>
<path d="M229 563H220V581H229V563Z" fill="#6C63FF"/>
<path d="M245 507H236V525H245V507Z" fill="#6C63FF"/>
<path d="M220 453V457.749H223.6V467.249H220V472H229V453H220Z" fill="#6C63FF"/>
<path d="M220 595V599.75H223.6V609.25H220V614H229V595H220Z" fill="#6C63FF"/>
<path d="M330 95H321V114H330V95Z" fill="#6C63FF"/>
<path d="M330 242H321V260H330V242Z" fill="#6C63FF"/>
<path d="M334 542H321V544H334V542Z" fill="#6C63FF"/>
<path d="M321 151V155.75H324.601V165.25H321V170H330V151H321Z" fill="#6C63FF"/>
<path d="M321 181V185.751H324.601V195.251H321V200H330V181H321Z" fill="#6C63FF"/>
<path d="M321 212V216.501H324.601V225.499H321V230H330V212H321Z" fill="#6C63FF"/>
<path d="M330 302H321V321H330V302Z" fill="#6C63FF"/>
<path d="M321 272V276.75H324.601V286.25H321V291H330V272H321Z" fill="#6C63FF"/>
<path d="M330 363H321V381H330V363Z" fill="#6C63FF"/>
<path d="M321 332V336.749H324.601V346.249H321V351H330V332H321Z" fill="#6C63FF"/>
<path d="M330 423H321V442H330V423Z" fill="#6C63FF"/>
<path d="M321 393V397.501H324.601V406.501H321V411H330V393H321Z" fill="#6C63FF"/>
<path d="M330 484H321V502H330V484Z" fill="#6C63FF"/>
<path d="M330 563H321V581H330V563Z" fill="#6C63FF"/>
<path d="M321 453V457.749H324.601V467.249H321V472H330V453H321Z" fill="#6C63FF"/>
<path d="M321 595V599.75H324.601V609.25H321V614H330V595H321Z" fill="#6C63FF"/>
<path d="M374 95H365V114H374V95Z" fill="#6C63FF"/>
<path d="M374 242H365V260H374V242Z" fill="#6C63FF"/>
<path d="M378 542H365V544H378V542Z" fill="#6C63FF"/>
<path d="M365 151V155.75H368.601V165.25H365V170H374V151H365Z" fill="#6C63FF"/>
<path d="M365 181V185.751H368.601V195.251H365V200H374V181H365Z" fill="#6C63FF"/>
<path d="M365 212V216.501H368.601V225.499H365V230H374V212H365Z" fill="#6C63FF"/>
<path d="M374 302H365V321H374V302Z" fill="#6C63FF"/>
<path d="M365 272V276.75H368.601V286.25H365V291H374V272H365Z" fill="#6C63FF"/>
<path d="M374 363H365V381H374V363Z" fill="#6C63FF"/>
<path d="M365 332V336.749H368.601V346.249H365V351H374V332H365Z" fill="#6C63FF"/>
<path d="M374 423H365V442H374V423Z" fill="#6C63FF"/>
<path d="M365 393V397.501H368.601V406.501H365V411H374V393H365Z" fill="#6C63FF"/>
<path d="M374 484H365V502H374V484Z" fill="#6C63FF"/>
<path d="M374 563H365V581H374V563Z" fill="#6C63FF"/>
<path d="M365 453V457.749H368.601V467.249H365V472H374V453H365Z" fill="#6C63FF"/>
<path d="M365 595V599.75H368.601V609.25H365V614H374V595H365Z" fill="#6C63FF"/>
<path d="M236 563V567.5H239.6V576.5H236V581H245V563H236Z" fill="#6C63FF"/>
<path d="M236 593V597.5H239.6V606.5H236V611H245V593H236Z" fill="#6C63FF"/>
<path d="M188 242V246.499H191.999V255.499H188V260H198V242H188Z" fill="#6C63FF"/>
<path d="M188 360V364.75H191.999V374.25H188V379H198V360H188Z" fill="#6C63FF"/>
<path d="M188 391V395.501H191.999V404.501H188V409H198V391H188Z" fill="#6C63FF"/>
<path d="M188 451V455.75H191.999V465.25H188V470H198V451H188Z" fill="#6C63FF"/>
<path d="M188 537V541.751H191.999V551.251H188V556H198V537H188Z" fill="#6C63FF"/>
<path d="M188 563V567.5H191.999V576.5H188V581H198V563H188Z" fill="#6C63FF"/>
<path d="M293 100H284V119H293V100Z" fill="#6C63FF"/>
<path d="M293 130H284V149H293V130Z" fill="#6C63FF"/>
<path d="M293 163H280V165H293V163Z" fill="#6C63FF"/>
<path d="M293 311H280V314H293V311Z" fill="#6C63FF"/>
<path d="M293 337H280V339H293V337Z" fill="#6C63FF"/>
<path d="M284 184V188.5H287.6V197.5H284V202H293V184H284Z" fill="#6C63FF"/>
<path d="M284 242V246.499H287.6V255.499H284V260H293V242H284Z" fill="#6C63FF"/>
<path d="M284 360V364.75H287.6V374.25H284V379H293V360H284Z" fill="#6C63FF"/>
<path d="M398 302H389V321H398V302Z" fill="#6C63FF"/>
<path d="M398 332H389V351H398V332Z" fill="#6C63FF"/>
<path d="M398 365H385V367H398V365Z" fill="#6C63FF"/>
<path d="M398 514H385V516H398V514Z" fill="#6C63FF"/>
<path d="M398 539H385V542H398V539Z" fill="#6C63FF"/>
<path d="M389 386V390.499H392.6V399.499H389V404H398V386H389Z" fill="#6C63FF"/>
<path d="M389 444V448.751H392.6V458.249H389V463H398V444H389Z" fill="#6C63FF"/>
<path d="M389 563V567.5H392.6V576.5H389V581H398V563H389Z" fill="#6C63FF"/>
<path d="M427 100H418V119H427V100Z" fill="#6C63FF"/>
<path d="M459 95H449V114H459V95Z" fill="#6C63FF"/>
<path d="M475 95H466V114H475V95Z" fill="#6C63FF"/>
<path d="M475 151H466V170H475V151Z" fill="#6C63FF"/>
<path d="M493 123H484V142H493V123Z" fill="#6C63FF"/>
<path d="M493 153H484V172H493V153Z" fill="#6C63FF"/>
<path d="M475 212H466V230H475V212Z" fill="#6C63FF"/>
<path d="M493 242H484V260H493V242Z" fill="#6C63FF"/>
<path d="M475 356H466V374H475V356Z" fill="#6C63FF"/>
<path d="M459 242H449V260H459V242Z" fill="#6C63FF"/>
<path d="M427 130H418V149H427V130Z" fill="#6C63FF"/>
<path d="M427 421H418V439H427V421Z" fill="#6C63FF"/>
<path d="M427 481H418V500H427V481Z" fill="#6C63FF"/>
<path d="M427 511H418V530H427V511Z" fill="#6C63FF"/>
<path d="M427 163H414V165H427V163Z" fill="#6C63FF"/>
<path d="M477 191H464V193H477V191Z" fill="#6C63FF"/>
<path d="M427 311H414V314H427V311Z" fill="#6C63FF"/>
<path d="M427 337H414V339H427V337Z" fill="#6C63FF"/>
<path d="M477 486H464V488H477V486Z" fill="#6C63FF"/>
<path d="M462 542H449V544H462V542Z" fill="#6C63FF"/>
<path d="M418 184V188.5H421.601V197.5H418V202H427V184H418Z" fill="#6C63FF"/>
<path d="M449 151V155.75H452.999V165.25H449V170H459V151H449Z" fill="#6C63FF"/>
<path d="M484 181V185.751H487.6V195.251H484V200H493V181H484Z" fill="#6C63FF"/>
<path d="M484 272V276.75H487.6V286.25H484V291H493V272H484Z" fill="#6C63FF"/>
<path d="M484 302V306.751H487.6V316.251H484V321H493V302H484Z" fill="#6C63FF"/>
<path d="M484 209V213.749H487.6V223.249H484V228H493V209H484Z" fill="#6C63FF"/>
<path d="M466 123V127.751H469.6V137.249H466V142H475V123H466Z" fill="#6C63FF"/>
<path d="M475 272H466V291H475V272Z" fill="#6C63FF"/>
<path d="M475 328H466V346H475V328Z" fill="#6C63FF"/>
<path d="M466 300V304.499H469.6V313.499H466V318H475V300H466Z" fill="#6C63FF"/>
<path d="M449 181V185.751H452.999V195.251H449V200H459V181H449Z" fill="#6C63FF"/>
<path d="M449 212V216.501H452.999V225.499H449V230H459V212H449Z" fill="#6C63FF"/>
<path d="M459 302H449V321H459V302Z" fill="#6C63FF"/>
<path d="M449 272V276.75H452.999V286.25H449V291H459V272H449Z" fill="#6C63FF"/>
<path d="M459 363H449V381H459V363Z" fill="#6C63FF"/>
<path d="M449 332V336.749H452.999V346.249H449V351H459V332H449Z" fill="#6C63FF"/>
<path d="M459 423H449V442H459V423Z" fill="#6C63FF"/>
<path d="M475 418H466V437H475V418Z" fill="#6C63FF"/>
<path d="M449 393V397.501H452.999V406.501H449V411H459V393H449Z" fill="#6C63FF"/>
<path d="M484 393V397.501H487.6V406.501H484V411H493V393H484Z" fill="#6C63FF"/>
<path d="M587 123H578V142H587V123Z" fill="#6C63FF"/>
<path d="M587 153H578V172H587V153Z" fill="#6C63FF"/>
<path d="M587 242H578V260H587V242Z" fill="#6C63FF"/>
<path d="M578 181V185.751H581.6V195.251H578V200H587V181H578Z" fill="#6C63FF"/>
<path d="M578 272V276.75H581.6V286.25H578V291H587V272H578Z" fill="#6C63FF"/>
<path d="M578 302V306.751H581.6V316.251H578V321H587V302H578Z" fill="#6C63FF"/>
<path d="M578 209V213.749H581.6V223.249H578V228H587V209H578Z" fill="#6C63FF"/>
<path d="M578 393V397.501H581.6V406.501H578V411H587V393H578Z" fill="#6C63FF"/>
<path d="M459 484H449V502H459V484Z" fill="#6C63FF"/>
<path d="M475 449H466V467H475V449Z" fill="#6C63FF"/>
<path d="M459 563H449V581H459V563Z" fill="#6C63FF"/>
<path d="M475 507H466V525H475V507Z" fill="#6C63FF"/>
<path d="M449 453V457.749H452.999V467.249H449V472H459V453H449Z" fill="#6C63FF"/>
<path d="M449 595V599.75H452.999V609.25H449V614H459V595H449Z" fill="#6C63FF"/>
<path d="M560 95H550V114H560V95Z" fill="#6C63FF"/>
<path d="M560 242H550V260H560V242Z" fill="#6C63FF"/>
<path d="M563 542H550V544H563V542Z" fill="#6C63FF"/>
<path d="M550 151V155.75H554.001V165.25H550V170H560V151H550Z" fill="#6C63FF"/>
<path d="M550 181V185.751H554.001V195.251H550V200H560V181H550Z" fill="#6C63FF"/>
<path d="M550 212V216.501H554.001V225.499H550V230H560V212H550Z" fill="#6C63FF"/>
<path d="M560 302H550V321H560V302Z" fill="#6C63FF"/>
<path d="M550 272V276.75H554.001V286.25H550V291H560V272H550Z" fill="#6C63FF"/>
<path d="M560 363H550V381H560V363Z" fill="#6C63FF"/>
<path d="M550 332V336.749H554.001V346.249H550V351H560V332H550Z" fill="#6C63FF"/>
<path d="M560 423H550V442H560V423Z" fill="#6C63FF"/>
<path d="M550 393V397.501H554.001V406.501H550V411H560V393H550Z" fill="#6C63FF"/>
<path d="M560 484H550V502H560V484Z" fill="#6C63FF"/>
<path d="M560 563H550V581H560V563Z" fill="#6C63FF"/>
<path d="M550 453V457.749H554.001V467.249H550V472H560V453H550Z" fill="#6C63FF"/>
<path d="M550 595V599.75H554.001V609.25H550V614H560V595H550Z" fill="#6C63FF"/>
<path d="M604 95H595V114H604V95Z" fill="#6C63FF"/>
<path d="M604 242H595V260H604V242Z" fill="#6C63FF"/>
<path d="M607 542H595V544H607V542Z" fill="#6C63FF"/>
<path d="M595 151V155.75H598.601V165.25H595V170H604V151H595Z" fill="#6C63FF"/>
<path d="M595 181V185.751H598.601V195.251H595V200H604V181H595Z" fill="#6C63FF"/>
<path d="M595 212V216.501H598.601V225.499H595V230H604V212H595Z" fill="#6C63FF"/>
<path d="M604 302H595V321H604V302Z" fill="#6C63FF"/>
<path d="M595 272V276.75H598.601V286.25H595V291H604V272H595Z" fill="#6C63FF"/>
<path d="M604 363H595V381H604V363Z" fill="#6C63FF"/>
<path d="M595 332V336.749H598.601V346.249H595V351H604V332H595Z" fill="#6C63FF"/>
<path d="M604 423H595V442H604V423Z" fill="#6C63FF"/>
<path d="M595 393V397.501H598.601V406.501H595V411H604V393H595Z" fill="#6C63FF"/>
<path d="M604 484H595V502H604V484Z" fill="#6C63FF"/>
<path d="M604 563H595V581H604V563Z" fill="#6C63FF"/>
<path d="M595 453V457.749H598.601V467.249H595V472H604V453H595Z" fill="#6C63FF"/>
<path d="M595 595V599.75H598.601V609.25H595V614H604V595H595Z" fill="#6C63FF"/>
<path d="M466 563V567.5H469.6V576.5H466V581H475V563H466Z" fill="#6C63FF"/>
<path d="M466 593V597.5H469.6V606.5H466V611H475V593H466Z" fill="#6C63FF"/>
<path d="M418 242V246.499H421.601V255.499H418V260H427V242H418Z" fill="#6C63FF"/>
<path d="M418 360V364.75H421.601V374.25H418V379H427V360H418Z" fill="#6C63FF"/>
<path d="M418 391V395.501H421.601V404.501H418V409H427V391H418Z" fill="#6C63FF"/>
<path d="M418 451V455.75H421.601V465.25H418V470H427V451H418Z" fill="#6C63FF"/>
<path d="M418 537V541.751H421.601V551.251H418V556H427V537H418Z" fill="#6C63FF"/>
<path d="M418 563V567.5H421.601V576.5H418V581H427V563H418Z" fill="#6C63FF"/>
<path d="M523 100H514V119H523V100Z" fill="#6C63FF"/>
<path d="M523 130H514V149H523V130Z" fill="#6C63FF"/>
<path d="M523 163H510V165H523V163Z" fill="#6C63FF"/>
<path d="M523 311H510V314H523V311Z" fill="#6C63FF"/>
<path d="M523 337H510V339H523V337Z" fill="#6C63FF"/>
<path d="M514 184V188.5H517.601V197.5H514V202H523V184H514Z" fill="#6C63FF"/>
<path d="M514 242V246.499H517.601V255.499H514V260H523V242H514Z" fill="#6C63FF"/>
<path d="M514 360V364.75H517.601V374.25H514V379H523V360H514Z" fill="#6C63FF"/>
<path d="M628 302H618V321H628V302Z" fill="#6C63FF"/>
<path d="M628 332H618V351H628V332Z" fill="#6C63FF"/>
<path d="M628 365H615V367H628V365Z" fill="#6C63FF"/>
<path d="M628 514H615V516H628V514Z" fill="#6C63FF"/>
<path d="M628 539H615V542H628V539Z" fill="#6C63FF"/>
<path d="M618 386V390.499H622.001V399.499H618V404H628V386H618Z" fill="#6C63FF"/>
<path d="M618 444V448.751H622.001V458.249H618V463H628V444H618Z" fill="#6C63FF"/>
<path d="M618 563V567.5H622.001V576.5H618V581H628V563H618Z" fill="#6C63FF"/>
<path d="M657 100H648V119H657V100Z" fill="#6C63FF"/>
<path d="M688 95H679V114H688V95Z" fill="#6C63FF"/>
<path d="M705 95H696V114H705V95Z" fill="#6C63FF"/>
<path d="M705 151H696V170H705V151Z" fill="#6C63FF"/>
<path d="M723 123H714V142H723V123Z" fill="#6C63FF"/>
<path d="M723 153H714V172H723V153Z" fill="#6C63FF"/>
<path d="M705 212H696V230H705V212Z" fill="#6C63FF"/>
<path d="M723 242H714V260H723V242Z" fill="#6C63FF"/>
<path d="M705 356H696V374H705V356Z" fill="#6C63FF"/>
<path d="M688 242H679V260H688V242Z" fill="#6C63FF"/>
<path d="M657 130H648V149H657V130Z" fill="#6C63FF"/>
<path d="M657 421H648V439H657V421Z" fill="#6C63FF"/>
<path d="M657 481H648V500H657V481Z" fill="#6C63FF"/>
<path d="M657 511H648V530H657V511Z" fill="#6C63FF"/>
<path d="M657 163H644V165H657V163Z" fill="#6C63FF"/>
<path d="M707 191H694V193H707V191Z" fill="#6C63FF"/>
<path d="M657 311H644V314H657V311Z" fill="#6C63FF"/>
<path d="M657 337H644V339H657V337Z" fill="#6C63FF"/>
<path d="M707 486H694V488H707V486Z" fill="#6C63FF"/>
<path d="M692 542H679V544H692V542Z" fill="#6C63FF"/>
<path d="M648 184V188.5H651.6V197.5H648V202H657V184H648Z" fill="#6C63FF"/>
<path d="M679 151V155.75H682.6V165.25H679V170H688V151H679Z" fill="#6C63FF"/>
<path d="M714 181V185.751H717.6V195.251H714V200H723V181H714Z" fill="#6C63FF"/>
<path d="M714 272V276.75H717.6V286.25H714V291H723V272H714Z" fill="#6C63FF"/>
<path d="M714 302V306.751H717.6V316.251H714V321H723V302H714Z" fill="#6C63FF"/>
<path d="M714 209V213.749H717.6V223.249H714V228H723V209H714Z" fill="#6C63FF"/>
<path d="M696 123V127.751H699.6V137.249H696V142H705V123H696Z" fill="#6C63FF"/>
<path d="M705 272H696V291H705V272Z" fill="#6C63FF"/>
<path d="M705 328H696V346H705V328Z" fill="#6C63FF"/>
<path d="M696 300V304.499H699.6V313.499H696V318H705V300H696Z" fill="#6C63FF"/>
<path d="M679 181V185.751H682.6V195.251H679V200H688V181H679Z" fill="#6C63FF"/>
<path d="M679 212V216.501H682.6V225.499H679V230H688V212H679Z" fill="#6C63FF"/>
<path d="M688 302H679V321H688V302Z" fill="#6C63FF"/>
<path d="M679 272V276.75H682.6V286.25H679V291H688V272H679Z" fill="#6C63FF"/>
<path d="M688 363H679V381H688V363Z" fill="#6C63FF"/>
<path d="M679 332V336.749H682.6V346.249H679V351H688V332H679Z" fill="#6C63FF"/>
<path d="M688 423H679V442H688V423Z" fill="#6C63FF"/>
<path d="M705 418H696V437H705V418Z" fill="#6C63FF"/>
<path d="M679 393V397.501H682.6V406.501H679V411H688V393H679Z" fill="#6C63FF"/>
<path d="M714 393V397.501H717.6V406.501H714V411H723V393H714Z" fill="#6C63FF"/>
<path d="M817 123H808V142H817V123Z" fill="#6C63FF"/>
<path d="M817 153H808V172H817V153Z" fill="#6C63FF"/>
<path d="M817 242H808V260H817V242Z" fill="#6C63FF"/>
<path d="M808 181V185.751H811.6V195.251H808V200H817V181H808Z" fill="#6C63FF"/>
<path d="M808 272V276.75H811.6V286.25H808V291H817V272H808Z" fill="#6C63FF"/>
<path d="M808 302V306.751H811.6V316.251H808V321H817V302H808Z" fill="#6C63FF"/>
<path d="M808 209V213.749H811.6V223.249H808V228H817V209H808Z" fill="#6C63FF"/>
<path d="M808 393V397.501H811.6V406.501H808V411H817V393H808Z" fill="#6C63FF"/>
<path d="M688 484H679V502H688V484Z" fill="#6C63FF"/>
<path d="M705 449H696V467H705V449Z" fill="#6C63FF"/>
<path d="M688 563H679V581H688V563Z" fill="#6C63FF"/>
<path d="M705 507H696V525H705V507Z" fill="#6C63FF"/>
<path d="M679 453V457.749H682.6V467.249H679V472H688V453H679Z" fill="#6C63FF"/>
<path d="M679 595V599.75H682.6V609.25H679V614H688V595H679Z" fill="#6C63FF"/>
<path d="M789 95H780V114H789V95Z" fill="#6C63FF"/>
<path d="M789 242H780V260H789V242Z" fill="#6C63FF"/>
<path d="M793 542H780V544H793V542Z" fill="#6C63FF"/>
<path d="M780 151V155.75H783.6V165.25H780V170H789V151H780Z" fill="#6C63FF"/>
<path d="M780 181V185.751H783.6V195.251H780V200H789V181H780Z" fill="#6C63FF"/>
<path d="M780 212V216.501H783.6V225.499H780V230H789V212H780Z" fill="#6C63FF"/>
<path d="M789 302H780V321H789V302Z" fill="#6C63FF"/>
<path d="M780 272V276.75H783.6V286.25H780V291H789V272H780Z" fill="#6C63FF"/>
<path d="M789 363H780V381H789V363Z" fill="#6C63FF"/>
<path d="M780 332V336.749H783.6V346.249H780V351H789V332H780Z" fill="#6C63FF"/>
<path d="M789 423H780V442H789V423Z" fill="#6C63FF"/>
<path d="M780 393V397.501H783.6V406.501H780V411H789V393H780Z" fill="#6C63FF"/>
<path d="M789 484H780V502H789V484Z" fill="#6C63FF"/>
<path d="M789 563H780V581H789V563Z" fill="#6C63FF"/>
<path d="M780 453V457.749H783.6V467.249H780V472H789V453H780Z" fill="#6C63FF"/>
<path d="M780 595V599.75H783.6V609.25H780V614H789V595H780Z" fill="#6C63FF"/>
<path d="M833 95H824V114H833V95Z" fill="#6C63FF"/>
<path d="M833 242H824V260H833V242Z" fill="#6C63FF"/>
<path d="M837 542H824V544H837V542Z" fill="#6C63FF"/>
<path d="M824 151V155.75H827.6V165.25H824V170H833V151H824Z" fill="#6C63FF"/>
<path d="M824 181V185.751H827.6V195.251H824V200H833V181H824Z" fill="#6C63FF"/>
<path d="M824 212V216.501H827.6V225.499H824V230H833V212H824Z" fill="#6C63FF"/>
<path d="M833 302H824V321H833V302Z" fill="#6C63FF"/>
<path d="M824 272V276.75H827.6V286.25H824V291H833V272H824Z" fill="#6C63FF"/>
<path d="M833 363H824V381H833V363Z" fill="#6C63FF"/>
<path d="M824 332V336.749H827.6V346.249H824V351H833V332H824Z" fill="#6C63FF"/>
<path d="M833 423H824V442H833V423Z" fill="#6C63FF"/>
<path d="M824 393V397.501H827.6V406.501H824V411H833V393H824Z" fill="#6C63FF"/>
<path d="M833 484H824V502H833V484Z" fill="#6C63FF"/>
<path d="M833 563H824V581H833V563Z" fill="#6C63FF"/>
<path d="M824 453V457.749H827.6V467.249H824V472H833V453H824Z" fill="#6C63FF"/>
<path d="M824 595V599.75H827.6V609.25H824V614H833V595H824Z" fill="#6C63FF"/>
<path d="M696 563V567.5H699.6V576.5H696V581H705V563H696Z" fill="#6C63FF"/>
<path d="M696 593V597.5H699.6V606.5H696V611H705V593H696Z" fill="#6C63FF"/>
<path d="M648 242V246.499H651.6V255.499H648V260H657V242H648Z" fill="#6C63FF"/>
<path d="M648 360V364.75H651.6V374.25H648V379H657V360H648Z" fill="#6C63FF"/>
<path d="M648 391V395.501H651.6V404.501H648V409H657V391H648Z" fill="#6C63FF"/>
<path d="M648 451V455.75H651.6V465.25H648V470H657V451H648Z" fill="#6C63FF"/>
<path d="M648 537V541.751H651.6V551.251H648V556H657V537H648Z" fill="#6C63FF"/>
<path d="M648 563V567.5H651.6V576.5H648V581H657V563H648Z" fill="#6C63FF"/>
<path d="M753 100H743V119H753V100Z" fill="#6C63FF"/>
<path d="M753 130H743V149H753V130Z" fill="#6C63FF"/>
<path d="M753 163H740V165H753V163Z" fill="#6C63FF"/>
<path d="M753 311H740V314H753V311Z" fill="#6C63FF"/>
<path d="M753 337H740V339H753V337Z" fill="#6C63FF"/>
<path d="M743 184V188.5H747.001V197.5H743V202H753V184H743Z" fill="#6C63FF"/>
<path d="M743 242V246.499H747.001V255.499H743V260H753V242H743Z" fill="#6C63FF"/>
<path d="M743 360V364.75H747.001V374.25H743V379H753V360H743Z" fill="#6C63FF"/>
<path d="M857 302H848V321H857V302Z" fill="#6C63FF"/>
<path d="M857 332H848V351H857V332Z" fill="#6C63FF"/>
<path d="M857 365H844V367H857V365Z" fill="#6C63FF"/>
<path d="M857 514H844V516H857V514Z" fill="#6C63FF"/>
<path d="M857 539H844V542H857V539Z" fill="#6C63FF"/>
<path d="M848 386V390.499H851.601V399.499H848V404H857V386H848Z" fill="#6C63FF"/>
<path d="M848 444V448.751H851.601V458.249H848V463H857V444H848Z" fill="#6C63FF"/>
<path d="M848 563V567.5H851.601V576.5H848V581H857V563H848Z" fill="#6C63FF"/>
</svg>
