<svg width="1043" height="710" viewBox="0 0 1043 710" fill="none" xmlns="http://www.w3.org/2000/svg">
<g clip-path="url(#clip0)">
<path d="M1042.04 706.534H214.435V709.089H1042.04V706.534Z" fill="#2F2E41"/>
<path d="M607.126 404.667V456.667L614.126 488.667C614.126 488.667 613.126 508.667 614.126 514.667C615.126 520.667 613.126 530.667 607.126 530.667C601.126 530.667 598.126 545.667 598.126 545.667C598.126 545.667 596.126 551.667 591.126 552.667C586.126 553.667 586.126 552.667 586.126 552.667L582.126 562.667L499.126 617.667L515.126 657.667C515.126 657.667 540.126 648.667 542.126 645.667C544.126 642.667 561.126 649.667 561.126 642.667C561.126 635.667 564.126 617.667 570.126 616.667C576.126 615.667 626.126 592.667 626.126 592.667C626.126 592.667 652.126 563.667 654.126 552.667C656.126 541.667 665.126 510.667 665.126 510.667L690.126 552.667V636.667L686.126 681.667L730.126 675.667C730.126 675.667 726.126 647.667 730.126 643.667C734.126 639.667 740.126 591.667 736.126 585.667C732.126 579.667 738.126 552.667 736.126 548.667C734.126 544.667 735.126 515.667 730.126 507.667C725.126 499.667 695.126 417.667 695.126 417.667L607.126 404.667Z" fill="#2F2E41"/>
<path d="M692.126 679.667C692.126 679.667 677.126 704.667 687.126 707.667C697.126 710.667 716.126 707.667 718.126 707.667C720.126 707.667 756.126 708.667 756.126 708.667C756.126 708.667 780.126 703.667 780.126 696.667C780.126 689.667 765.126 689.667 760.126 688.667C755.126 687.667 724.126 675.667 724.126 675.667L692.126 679.667Z" fill="#2F2E41"/>
<path d="M503.718 618.795C503.718 618.795 474.816 614.967 476.038 625.336C477.26 635.704 487.564 651.947 488.359 653.782C488.898 655.025 495.214 670.76 499.234 680.788C502.141 688.139 506.507 694.824 512.07 700.44C516.001 704.369 520.286 707.519 523.096 706.302C529.519 703.52 523.557 689.755 522.488 684.77C521.418 679.784 520.108 646.569 520.108 646.569L503.718 618.795Z" fill="#2F2E41"/>
<path d="M704.626 239.167L736.626 165.167C736.626 165.167 733.626 158.167 726.626 159.167C726.626 159.167 717.126 134.667 699.126 134.667C699.126 134.667 672.126 119.667 664.126 134.667C664.126 134.667 647.126 149.667 648.126 163.667C649.126 177.667 650.126 187.667 650.126 187.667C650.126 187.667 634.126 189.667 637.126 197.667C640.126 205.667 641.126 205.667 637.126 208.667L633.126 211.667C633.126 211.667 550.126 286.667 596.126 396.667L600.126 413.667V429.667C600.126 429.667 701.126 430.667 701.126 429.667C701.126 428.667 699.126 422.667 703.126 418.667C707.126 414.667 707.126 408.667 707.126 408.667C707.126 408.667 703.126 388.667 705.126 382.667C707.126 376.667 708.126 350.667 704.126 344.667C700.126 338.667 702.126 290.667 702.126 290.667L711.126 273.667L708.126 263.667L705.126 253.667L704.626 239.167Z" fill="#8985A8"/>
<path opacity="0.1" d="M696.126 439.667C696.126 439.667 684.126 406.667 685.126 400.667C686.126 394.667 683.126 382.667 683.126 382.667L679.126 301.667C679.126 301.667 696.126 229.667 658.126 217.667C658.126 217.667 648.51 221.862 640.632 235.364C632.841 238.834 623.387 247.616 621.126 269.667C617.126 308.667 635.126 408.667 644.126 425.667C653.126 442.667 659.126 454.667 659.126 454.667L668.532 450.486C668.921 451.256 669.126 451.667 669.126 451.667L696.126 439.667Z" fill="black"/>
<path d="M701.626 230.167C703.283 230.167 704.626 228.823 704.626 227.167C704.626 225.51 703.283 224.167 701.626 224.167C699.969 224.167 698.626 225.51 698.626 227.167C698.626 228.823 699.969 230.167 701.626 230.167Z" fill="#F2F2F2"/>
<path d="M702.626 227.167H700.626V274.167H702.626V227.167Z" fill="#3F3D56"/>
<path d="M665.626 443.167L673.626 460.167C673.626 460.167 691.626 454.167 691.626 451.167C691.626 448.167 683.626 435.167 683.626 435.167L665.626 443.167Z" fill="#FFB8B8"/>
<path d="M654.126 217.667C654.126 217.667 631.126 227.667 627.126 266.667C623.126 305.667 641.126 405.667 650.126 422.667C659.126 439.667 665.126 451.667 665.126 451.667L692.126 439.667C692.126 439.667 680.126 406.667 681.126 400.667C682.126 394.667 679.126 382.667 679.126 382.667L675.126 301.667C675.126 301.667 692.126 229.667 654.126 217.667Z" fill="#8985A8"/>
</g>
<defs>
<clipPath id="clip0">
<rect width="1042.04" height="709.089" fill="white"/>
</clipPath>
</defs>
</svg>
